<ttFont>
<head>
    <!-- Most of this table will be recalculated by the compiler -->
    <tableVersion value="1.0"/>
    <fontRevision value="0.84999"/>
    <checkSumAdjustment value="0x6985dadc"/>
    <magicNumber value="0x5f0f3cf5"/>
    <flags value="00000000 00000111"/>
    <unitsPerEm value="1000"/>
    <created value="Sat Nov 28 12:14:13 2020"/>
    <modified value="Wed Sep  1 18:33:30 2021"/>
    <xMin value="-131"/>
    <yMin value="-216"/>
    <xMax value="626"/>
    <yMax value="1024"/>
    <macStyle value="00000000 00000000"/>
    <lowestRecPPEM value="7"/>
    <fontDirectionHint value="2"/>
    <indexToLocFormat value="0"/>
    <glyphDataFormat value="0"/>
  </head>
    <TTGlyph name=".notdef" xMin="98" yMin="-200" xMax="431" yMax="850">
      <contour>
        <pt x="431" y="-200" on="1"/>
        <pt x="98" y="-200" on="1"/>
        <pt x="98" y="850" on="1"/>
        <pt x="431" y="850" on="1"/>
      </contour>
      <contour>
        <pt x="350" y="-128" on="1"/>
        <pt x="350" y="-93" on="1"/>
        <pt x="243" y="-93" on="1"/>
        <pt x="316" y="-44" on="1"/>
        <pt x="350" y="-44" on="1"/>
        <pt x="350" y="-9" on="1"/>
        <pt x="175" y="-9" on="1"/>
        <pt x="175" y="-44" on="1"/>
        <pt x="249" y="-44" on="1"/>
        <pt x="175" y="-93" on="1"/>
        <pt x="175" y="-128" on="1"/>
      </contour>
      <contour>
        <pt x="350" y="15" on="1"/>
        <pt x="350" y="134" on="1"/>
        <pt x="175" y="134" on="1"/>
        <pt x="175" y="15" on="1"/>
      </contour>
      <contour>
        <pt x="350" y="197" on="1"/>
        <pt x="350" y="316" on="1"/>
        <pt x="245" y="316" on="1"/>
        <pt x="245" y="257" on="1"/>
        <pt x="280" y="257" on="1"/>
        <pt x="280" y="281" on="1"/>
        <pt x="315" y="281" on="1"/>
        <pt x="315" y="232" on="1"/>
        <pt x="210" y="232" on="1"/>
        <pt x="210" y="316" on="1"/>
        <pt x="175" y="316" on="1"/>
        <pt x="175" y="197" on="1"/>
      </contour>
      <contour>
        <pt x="350" y="339" on="1"/>
        <pt x="350" y="444" on="1"/>
        <pt x="315" y="444" on="1"/>
        <pt x="315" y="374" on="1"/>
        <pt x="175" y="374" on="1"/>
        <pt x="175" y="339" on="1"/>
      </contour>
      <contour>
        <pt x="280" y="399" on="1"/>
        <pt x="280" y="472" on="1"/>
        <pt x="350" y="472" on="1"/>
        <pt x="350" y="507" on="1"/>
        <pt x="175" y="507" on="1"/>
        <pt x="175" y="472" on="1"/>
        <pt x="245" y="472" on="1"/>
        <pt x="245" y="433" on="1"/>
        <pt x="175" y="433" on="1"/>
        <pt x="175" y="399" on="1"/>
      </contour>
      <contour>
        <pt x="350" y="535" on="1"/>
        <pt x="350" y="571" on="1"/>
        <pt x="280" y="571" on="1"/>
        <pt x="280" y="644" on="1"/>
        <pt x="175" y="644" on="1"/>
        <pt x="175" y="535" on="1"/>
      </contour>
      <contour>
        <pt x="350" y="672" on="1"/>
        <pt x="350" y="706" on="1"/>
        <pt x="280" y="706" on="1"/>
        <pt x="280" y="745" on="1"/>
        <pt x="350" y="745" on="1"/>
        <pt x="350" y="780" on="1"/>
        <pt x="176" y="780" on="1"/>
        <pt x="176" y="745" on="1"/>
        <pt x="245" y="745" on="1"/>
        <pt x="245" y="706" on="1"/>
        <pt x="175" y="706" on="1"/>
        <pt x="175" y="672" on="1"/>
      </contour>
      <contour>
        <pt x="210" y="99" on="1"/>
        <pt x="315" y="99" on="1"/>
        <pt x="315" y="50" on="1"/>
        <pt x="210" y="50" on="1"/>
      </contour>
      <contour>
        <pt x="210" y="609" on="1"/>
        <pt x="245" y="609" on="1"/>
        <pt x="245" y="571" on="1"/>
        <pt x="210" y="571" on="1"/>
      </contour>
    </TTGlyph>
    <TTGlyph name="A" xMin="51" yMin="0" xMax="599" yMax="800">
      <contour>
        <pt x="422" y="276" on="1"/>
        <pt x="222" y="276" on="1"/>
        <pt x="159" y="0" on="1"/>
        <pt x="51" y="0" on="1"/>
        <pt x="239" y="800" on="1"/>
        <pt x="411" y="800" on="1"/>
        <pt x="599" y="0" on="1"/>
        <pt x="485" y="0" on="1"/>
      </contour>
      <contour>
        <pt x="399" y="377" on="1"/>
        <pt x="322" y="718" on="1"/>
        <pt x="245" y="377" on="1"/>
      </contour>
    </TTGlyph>
    <TTGlyph name="B" xMin="110" yMin="0" xMax="587" yMax="800">
      <contour>
        <pt x="455" y="800" on="0"/>
        <pt x="587" y="686" on="0"/>
        <pt x="587" y="583" on="1"/>
        <pt x="587" y="510" on="0"/>
        <pt x="516" y="426" on="0"/>
        <pt x="446" y="416" on="1"/>
        <pt x="446" y="387" on="1"/>
        <pt x="513" y="377" on="0"/>
        <pt x="582" y="291" on="0"/>
        <pt x="582" y="217" on="1"/>
        <pt x="582" y="114" on="0"/>
        <pt x="449" y="0" on="0"/>
        <pt x="329" y="0" on="1"/>
        <pt x="110" y="0" on="1"/>
        <pt x="110" y="800" on="1"/>
        <pt x="335" y="800" on="1"/>
      </contour>
      <contour>
        <pt x="329" y="104" on="1"/>
        <pt x="401" y="104" on="0"/>
        <pt x="476" y="166" on="0"/>
        <pt x="476" y="227" on="1"/>
        <pt x="476" y="288" on="0"/>
        <pt x="401" y="351" on="0"/>
        <pt x="329" y="351" on="1"/>
        <pt x="218" y="351" on="1"/>
        <pt x="218" y="104" on="1"/>
      </contour>
      <contour>
        <pt x="335" y="451" on="1"/>
        <pt x="407" y="451" on="0"/>
        <pt x="481" y="513" on="0"/>
        <pt x="481" y="574" on="1"/>
        <pt x="481" y="634" on="0"/>
        <pt x="407" y="696" on="0"/>
        <pt x="335" y="696" on="1"/>
        <pt x="218" y="696" on="1"/>
        <pt x="218" y="451" on="1"/>
      </contour>
    </TTGlyph>
    <TTGlyph name="C" xMin="81" yMin="-16" xMax="592" yMax="816">
      <contour>
        <pt x="209" y="-16" on="0"/>
        <pt x="81" y="191" on="0"/>
        <pt x="81" y="400" on="1"/>
        <pt x="81" y="816" on="0"/>
        <pt x="346" y="816" on="1"/>
        <pt x="456" y="816" on="0"/>
        <pt x="579" y="671" on="0"/>
        <pt x="592" y="527" on="1"/>
        <pt x="487" y="527" on="1"/>
        <pt x="476" y="622" on="0"/>
        <pt x="408" y="712" on="0"/>
        <pt x="346" y="712" on="1"/>
        <pt x="265" y="712" on="0"/>
        <pt x="189" y="561" on="0"/>
        <pt x="189" y="400" on="1"/>
        <pt x="189" y="239" on="0"/>
        <pt x="261" y="88" on="0"/>
        <pt x="338" y="88" on="1"/>
        <pt x="399" y="88" on="0"/>
        <pt x="465" y="170" on="0"/>
        <pt x="475" y="258" on="1"/>
        <pt x="581" y="258" on="1"/>
        <pt x="554" y="-16" on="0"/>
        <pt x="338" y="-16" on="1"/>
      </contour>
    </TTGlyph>
    <TTGlyph name="D" xMin="90" yMin="0" xMax="582" yMax="800">
      <contour>
        <pt x="90" y="800" on="1"/>
        <pt x="284" y="800" on="1"/>
        <pt x="434" y="800" on="0"/>
        <pt x="582" y="602" on="0"/>
        <pt x="582" y="400" on="1"/>
        <pt x="582" y="198" on="0"/>
        <pt x="434" y="0" on="0"/>
        <pt x="284" y="0" on="1"/>
        <pt x="90" y="0" on="1"/>
      </contour>
      <contour>
        <pt x="284" y="104" on="1"/>
        <pt x="379" y="104" on="0"/>
        <pt x="474" y="251" on="0"/>
        <pt x="474" y="400" on="1"/>
        <pt x="474" y="549" on="0"/>
        <pt x="379" y="696" on="0"/>
        <pt x="284" y="696" on="1"/>
        <pt x="198" y="696" on="1"/>
        <pt x="198" y="104" on="1"/>
      </contour>
    </TTGlyph>
    <TTGlyph name="E" xMin="131" yMin="0" xMax="574" yMax="800">
      <contour>
        <pt x="131" y="800" on="1"/>
        <pt x="574" y="800" on="1"/>
        <pt x="574" y="696" on="1"/>
        <pt x="238" y="696" on="1"/>
        <pt x="238" y="453" on="1"/>
        <pt x="521" y="453" on="1"/>
        <pt x="521" y="353" on="1"/>
        <pt x="238" y="353" on="1"/>
        <pt x="238" y="104" on="1"/>
        <pt x="554" y="104" on="1"/>
        <pt x="554" y="0" on="1"/>
        <pt x="131" y="0" on="1"/>
      </contour>
    </TTGlyph>
    <TTGlyph name="Euro" xMin="40" yMin="-16" xMax="600" yMax="816">
      <contour>
        <pt x="265" y="-16" on="0"/>
        <pt x="147" y="129" on="0"/>
        <pt x="131" y="276" on="1"/>
        <pt x="40" y="276" on="1"/>
        <pt x="40" y="363" on="1"/>
        <pt x="125" y="363" on="1"/>
        <pt x="125" y="400" on="1"/>
        <pt x="125" y="432" on="0"/>
        <pt x="126" y="447" on="1"/>
        <pt x="40" y="447" on="1"/>
        <pt x="40" y="535" on="1"/>
        <pt x="133" y="535" on="1"/>
        <pt x="167" y="816" on="0"/>
        <pt x="370" y="816" on="1"/>
        <pt x="474" y="816" on="0"/>
        <pt x="592" y="677" on="0"/>
        <pt x="600" y="542" on="1"/>
        <pt x="496" y="542" on="1"/>
        <pt x="488" y="630" on="0"/>
        <pt x="427" y="712" on="0"/>
        <pt x="370" y="712" on="1"/>
        <pt x="315" y="712" on="0"/>
        <pt x="251" y="626" on="0"/>
        <pt x="239" y="535" on="1"/>
        <pt x="420" y="535" on="1"/>
        <pt x="420" y="447" on="1"/>
        <pt x="232" y="447" on="1"/>
        <pt x="231" y="432" on="0"/>
        <pt x="231" y="400" on="1"/>
        <pt x="231" y="363" on="1"/>
        <pt x="420" y="363" on="1"/>
        <pt x="420" y="276" on="1"/>
        <pt x="237" y="276" on="1"/>
        <pt x="248" y="179" on="0"/>
        <pt x="311" y="88" on="0"/>
        <pt x="367" y="88" on="1"/>
        <pt x="418" y="88" on="0"/>
        <pt x="472" y="161" on="0"/>
        <pt x="480" y="238" on="1"/>
        <pt x="584" y="238" on="1"/>
        <pt x="576" y="113" on="0"/>
        <pt x="465" y="-16" on="0"/>
        <pt x="367" y="-16" on="1"/>
      </contour>
    </TTGlyph>
    <TTGlyph name="F" xMin="144" yMin="0" xMax="588" yMax="800">
      <contour>
        <pt x="144" y="800" on="1"/>
        <pt x="588" y="800" on="1"/>
        <pt x="588" y="696" on="1"/>
        <pt x="252" y="696" on="1"/>
        <pt x="252" y="443" on="1"/>
        <pt x="545" y="443" on="1"/>
        <pt x="545" y="339" on="1"/>
        <pt x="252" y="339" on="1"/>
        <pt x="252" y="0" on="1"/>
        <pt x="144" y="0" on="1"/>
      </contour>
    </TTGlyph>
    <TTGlyph name="G" xMin="71" yMin="-16" xMax="582" yMax="816">
      <contour>
        <pt x="190" y="-16" on="0"/>
        <pt x="71" y="195" on="0"/>
        <pt x="71" y="400" on="1"/>
        <pt x="71" y="609" on="0"/>
        <pt x="205" y="816" on="0"/>
        <pt x="339" y="816" on="1"/>
        <pt x="556" y="816" on="0"/>
        <pt x="582" y="547" on="1"/>
        <pt x="476" y="547" on="1"/>
        <pt x="466" y="632" on="0"/>
        <pt x="400" y="712" on="0"/>
        <pt x="339" y="712" on="1"/>
        <pt x="256" y="712" on="0"/>
        <pt x="179" y="561" on="0"/>
        <pt x="179" y="400" on="1"/>
        <pt x="179" y="237" on="0"/>
        <pt x="255" y="85" on="0"/>
        <pt x="335" y="85" on="1"/>
        <pt x="393" y="85" on="0"/>
        <pt x="457" y="185" on="0"/>
        <pt x="469" y="293" on="1"/>
        <pt x="319" y="293" on="1"/>
        <pt x="319" y="397" on="1"/>
        <pt x="557" y="397" on="1"/>
        <pt x="557" y="0" on="1"/>
        <pt x="465" y="0" on="1"/>
        <pt x="465" y="81" on="1"/>
        <pt x="436" y="81" on="1"/>
        <pt x="408" y="-16" on="0"/>
        <pt x="302" y="-16" on="1"/>
      </contour>
    </TTGlyph>
    <TTGlyph name="H" xMin="90" yMin="0" xMax="560" yMax="800">
      <contour>
        <pt x="198" y="800" on="1"/>
        <pt x="198" y="453" on="1"/>
        <pt x="452" y="453" on="1"/>
        <pt x="452" y="800" on="1"/>
        <pt x="560" y="800" on="1"/>
        <pt x="560" y="0" on="1"/>
        <pt x="452" y="0" on="1"/>
        <pt x="452" y="353" on="1"/>
        <pt x="198" y="353" on="1"/>
        <pt x="198" y="0" on="1"/>
        <pt x="90" y="0" on="1"/>
        <pt x="90" y="800" on="1"/>
      </contour>
    </TTGlyph>
    <TTGlyph name="I" xMin="110" yMin="0" xMax="540" yMax="800">
      <contour>
        <pt x="110" y="104" on="1"/>
        <pt x="271" y="104" on="1"/>
        <pt x="271" y="696" on="1"/>
        <pt x="110" y="696" on="1"/>
        <pt x="110" y="800" on="1"/>
        <pt x="540" y="800" on="1"/>
        <pt x="540" y="696" on="1"/>
        <pt x="379" y="696" on="1"/>
        <pt x="379" y="104" on="1"/>
        <pt x="540" y="104" on="1"/>
        <pt x="540" y="0" on="1"/>
        <pt x="110" y="0" on="1"/>
      </contour>
    </TTGlyph>
    <TTGlyph name="J" xMin="91" yMin="-16" xMax="538" yMax="800">
      <contour>
        <pt x="208" y="-16" on="0"/>
        <pt x="91" y="109" on="0"/>
        <pt x="91" y="221" on="1"/>
        <pt x="91" y="350" on="1"/>
        <pt x="196" y="350" on="1"/>
        <pt x="196" y="221" on="1"/>
        <pt x="196" y="156" on="0"/>
        <pt x="256" y="88" on="0"/>
        <pt x="313" y="88" on="1"/>
        <pt x="370" y="88" on="0"/>
        <pt x="430" y="156" on="0"/>
        <pt x="430" y="221" on="1"/>
        <pt x="430" y="696" on="1"/>
        <pt x="147" y="696" on="1"/>
        <pt x="147" y="800" on="1"/>
        <pt x="538" y="800" on="1"/>
        <pt x="538" y="221" on="1"/>
        <pt x="538" y="109" on="0"/>
        <pt x="420" y="-16" on="0"/>
        <pt x="313" y="-16" on="1"/>
      </contour>
    </TTGlyph>
    <TTGlyph name="K" xMin="124" yMin="0" xMax="617" yMax="800">
      <contour>
        <pt x="232" y="800" on="1"/>
        <pt x="232" y="434" on="1"/>
        <pt x="493" y="800" on="1"/>
        <pt x="617" y="800" on="1"/>
        <pt x="322" y="390" on="1"/>
        <pt x="605" y="0" on="1"/>
        <pt x="474" y="0" on="1"/>
        <pt x="232" y="338" on="1"/>
        <pt x="232" y="0" on="1"/>
        <pt x="124" y="0" on="1"/>
        <pt x="124" y="800" on="1"/>
      </contour>
    </TTGlyph>
    <TTGlyph name="L" xMin="161" yMin="0" xMax="586" yMax="800">
      <contour>
        <pt x="161" y="800" on="1"/>
        <pt x="269" y="800" on="1"/>
        <pt x="269" y="104" on="1"/>
        <pt x="586" y="104" on="1"/>
        <pt x="586" y="0" on="1"/>
        <pt x="161" y="0" on="1"/>
      </contour>
    </TTGlyph>
    <TTGlyph name="M" xMin="69" yMin="0" xMax="581" yMax="800">
      <contour>
        <pt x="69" y="800" on="1"/>
        <pt x="248" y="800" on="1"/>
        <pt x="324" y="341" on="1"/>
        <pt x="333" y="341" on="1"/>
        <pt x="409" y="800" on="1"/>
        <pt x="581" y="800" on="1"/>
        <pt x="581" y="0" on="1"/>
        <pt x="478" y="0" on="1"/>
        <pt x="478" y="454" on="1"/>
        <pt x="485" y="712" on="1"/>
        <pt x="476" y="712" on="1"/>
        <pt x="400" y="272" on="1"/>
        <pt x="250" y="272" on="1"/>
        <pt x="174" y="712" on="1"/>
        <pt x="165" y="712" on="1"/>
        <pt x="172" y="454" on="1"/>
        <pt x="172" y="0" on="1"/>
        <pt x="69" y="0" on="1"/>
      </contour>
    </TTGlyph>
    <TTGlyph name="N" xMin="90" yMin="0" xMax="560" yMax="800">
      <contour>
        <pt x="90" y="800" on="1"/>
        <pt x="285" y="800" on="1"/>
        <pt x="449" y="79" on="1"/>
        <pt x="459" y="79" on="1"/>
        <pt x="452" y="337" on="1"/>
        <pt x="452" y="800" on="1"/>
        <pt x="560" y="800" on="1"/>
        <pt x="560" y="0" on="1"/>
        <pt x="365" y="0" on="1"/>
        <pt x="201" y="721" on="1"/>
        <pt x="191" y="721" on="1"/>
        <pt x="198" y="463" on="1"/>
        <pt x="198" y="0" on="1"/>
        <pt x="90" y="0" on="1"/>
      </contour>
    </TTGlyph>
    <TTGlyph name="O" xMin="60" yMin="-16" xMax="590" yMax="816">
      <contour>
        <pt x="191" y="-16" on="0"/>
        <pt x="60" y="190" on="0"/>
        <pt x="60" y="400" on="1"/>
        <pt x="60" y="610" on="0"/>
        <pt x="191" y="816" on="0"/>
        <pt x="325" y="816" on="1"/>
        <pt x="459" y="816" on="0"/>
        <pt x="590" y="610" on="0"/>
        <pt x="590" y="400" on="1"/>
        <pt x="590" y="190" on="0"/>
        <pt x="459" y="-16" on="0"/>
        <pt x="325" y="-16" on="1"/>
      </contour>
      <contour>
        <pt x="167" y="237" on="0"/>
        <pt x="243" y="85" on="0"/>
        <pt x="325" y="85" on="1"/>
        <pt x="407" y="85" on="0"/>
        <pt x="483" y="237" on="0"/>
        <pt x="483" y="400" on="1"/>
        <pt x="483" y="563" on="0"/>
        <pt x="407" y="715" on="0"/>
        <pt x="325" y="715" on="1"/>
        <pt x="243" y="715" on="0"/>
        <pt x="167" y="563" on="0"/>
        <pt x="167" y="400" on="1"/>
      </contour>
    </TTGlyph>
    <TTGlyph name="P" xMin="123" yMin="0" xMax="604" yMax="800">
      <contour>
        <pt x="123" y="800" on="1"/>
        <pt x="359" y="800" on="1"/>
        <pt x="473" y="800" on="0"/>
        <pt x="604" y="674" on="0"/>
        <pt x="604" y="565" on="1"/>
        <pt x="604" y="457" on="0"/>
        <pt x="473" y="334" on="0"/>
        <pt x="359" y="334" on="1"/>
        <pt x="231" y="334" on="1"/>
        <pt x="231" y="0" on="1"/>
        <pt x="123" y="0" on="1"/>
      </contour>
      <contour>
        <pt x="363" y="433" on="1"/>
        <pt x="425" y="433" on="0"/>
        <pt x="496" y="503" on="0"/>
        <pt x="496" y="564" on="1"/>
        <pt x="496" y="626" on="0"/>
        <pt x="425" y="696" on="0"/>
        <pt x="363" y="696" on="1"/>
        <pt x="231" y="696" on="1"/>
        <pt x="231" y="433" on="1"/>
      </contour>
    </TTGlyph>
    <TTGlyph name="Q" xMin="60" yMin="-216" xMax="590" yMax="816">
      <contour>
        <pt x="407" y="85" on="0"/>
        <pt x="483" y="237" on="0"/>
        <pt x="483" y="400" on="1"/>
        <pt x="483" y="563" on="0"/>
        <pt x="407" y="715" on="0"/>
        <pt x="325" y="715" on="1"/>
        <pt x="243" y="715" on="0"/>
        <pt x="167" y="563" on="0"/>
        <pt x="167" y="400" on="1"/>
        <pt x="167" y="237" on="0"/>
        <pt x="243" y="85" on="0"/>
        <pt x="325" y="85" on="1"/>
      </contour>
      <contour>
        <pt x="60" y="610" on="0"/>
        <pt x="191" y="816" on="0"/>
        <pt x="325" y="816" on="1"/>
        <pt x="459" y="816" on="0"/>
        <pt x="590" y="610" on="0"/>
        <pt x="590" y="400" on="1"/>
        <pt x="590" y="198" on="0"/>
        <pt x="470" y="-8" on="0"/>
        <pt x="346" y="-15" on="1"/>
        <pt x="562" y="-113" on="1"/>
        <pt x="562" y="-216" on="1"/>
        <pt x="306" y="-100" on="1"/>
        <pt x="306" y="-15" on="1"/>
        <pt x="182" y="-8" on="0"/>
        <pt x="60" y="197" on="0"/>
        <pt x="60" y="400" on="1"/>
      </contour>
    </TTGlyph>
    <TTGlyph name="R" xMin="110" yMin="0" xMax="610" yMax="800">
      <contour>
        <pt x="110" y="800" on="1"/>
        <pt x="338" y="800" on="1"/>
        <pt x="456" y="800" on="0"/>
        <pt x="591" y="677" on="0"/>
        <pt x="591" y="570" on="1"/>
        <pt x="591" y="483" on="0"/>
        <pt x="497" y="370" on="0"/>
        <pt x="412" y="353" on="1"/>
        <pt x="610" y="0" on="1"/>
        <pt x="487" y="0" on="1"/>
        <pt x="300" y="346" on="1"/>
        <pt x="218" y="346" on="1"/>
        <pt x="218" y="0" on="1"/>
        <pt x="110" y="0" on="1"/>
      </contour>
      <contour>
        <pt x="341" y="443" on="1"/>
        <pt x="409" y="443" on="0"/>
        <pt x="484" y="509" on="0"/>
        <pt x="484" y="570" on="1"/>
        <pt x="484" y="630" on="0"/>
        <pt x="409" y="696" on="0"/>
        <pt x="341" y="696" on="1"/>
        <pt x="218" y="696" on="1"/>
        <pt x="218" y="443" on="1"/>
      </contour>
    </TTGlyph>
    <TTGlyph name="S" xMin="86" yMin="-16" xMax="590" yMax="816">
      <contour>
        <pt x="201" y="145" on="0"/>
        <pt x="271" y="88" on="0"/>
        <pt x="336" y="88" on="1"/>
        <pt x="398" y="88" on="0"/>
        <pt x="464" y="158" on="0"/>
        <pt x="464" y="223" on="1"/>
        <pt x="464" y="274" on="0"/>
        <pt x="413" y="332" on="0"/>
        <pt x="360" y="340" on="1"/>
        <pt x="296" y="349" on="1"/>
        <pt x="197" y="365" on="0"/>
        <pt x="94" y="479" on="0"/>
        <pt x="94" y="575" on="1"/>
        <pt x="94" y="688" on="0"/>
        <pt x="224" y="816" on="0"/>
        <pt x="338" y="816" on="1"/>
        <pt x="450" y="816" on="0"/>
        <pt x="581" y="692" on="0"/>
        <pt x="590" y="576" on="1"/>
        <pt x="482" y="576" on="1"/>
        <pt x="469" y="712" on="0"/>
        <pt x="338" y="712" on="1"/>
        <pt x="273" y="712" on="0"/>
        <pt x="202" y="641" on="0"/>
        <pt x="202" y="575" on="1"/>
        <pt x="202" y="524" on="0"/>
        <pt x="253" y="466" on="0"/>
        <pt x="306" y="458" on="1"/>
        <pt x="370" y="449" on="1"/>
        <pt x="470" y="433" on="0"/>
        <pt x="572" y="319" on="0"/>
        <pt x="572" y="223" on="1"/>
        <pt x="572" y="111" on="0"/>
        <pt x="447" y="-16" on="0"/>
        <pt x="336" y="-16" on="1"/>
        <pt x="223" y="-16" on="0"/>
        <pt x="96" y="96" on="0"/>
        <pt x="86" y="204" on="1"/>
        <pt x="195" y="204" on="1"/>
      </contour>
    </TTGlyph>
    <TTGlyph name="T" xMin="70" yMin="0" xMax="580" yMax="800">
      <contour>
        <pt x="271" y="696" on="1"/>
        <pt x="70" y="696" on="1"/>
        <pt x="70" y="800" on="1"/>
        <pt x="580" y="800" on="1"/>
        <pt x="580" y="696" on="1"/>
        <pt x="379" y="696" on="1"/>
        <pt x="379" y="0" on="1"/>
        <pt x="271" y="0" on="1"/>
      </contour>
    </TTGlyph>
    <TTGlyph name="U" xMin="82" yMin="-16" xMax="568" yMax="800">
      <contour>
        <pt x="190" y="800" on="1"/>
        <pt x="190" y="245" on="1"/>
        <pt x="190" y="169" on="0"/>
        <pt x="260" y="88" on="0"/>
        <pt x="325" y="88" on="1"/>
        <pt x="390" y="88" on="0"/>
        <pt x="460" y="169" on="0"/>
        <pt x="460" y="245" on="1"/>
        <pt x="460" y="800" on="1"/>
        <pt x="568" y="800" on="1"/>
        <pt x="568" y="245" on="1"/>
        <pt x="568" y="121" on="0"/>
        <pt x="440" y="-16" on="0"/>
        <pt x="325" y="-16" on="1"/>
        <pt x="210" y="-16" on="0"/>
        <pt x="82" y="121" on="0"/>
        <pt x="82" y="245" on="1"/>
        <pt x="82" y="800" on="1"/>
      </contour>
    </TTGlyph>
    <TTGlyph name="V" xMin="51" yMin="0" xMax="599" yMax="800">
      <contour>
        <pt x="328" y="82" on="1"/>
        <pt x="491" y="800" on="1"/>
        <pt x="599" y="800" on="1"/>
        <pt x="411" y="0" on="1"/>
        <pt x="239" y="0" on="1"/>
        <pt x="51" y="800" on="1"/>
        <pt x="165" y="800" on="1"/>
      </contour>
    </TTGlyph>
    <TTGlyph name="W" xMin="24" yMin="0" xMax="626" yMax="800">
      <contour>
        <pt x="197" y="138" on="1"/>
        <pt x="253" y="599" on="1"/>
        <pt x="404" y="599" on="1"/>
        <pt x="457" y="146" on="1"/>
        <pt x="516" y="800" on="1"/>
        <pt x="626" y="800" on="1"/>
        <pt x="537" y="0" on="1"/>
        <pt x="382" y="0" on="1"/>
        <pt x="326" y="483" on="1"/>
        <pt x="266" y="0" on="1"/>
        <pt x="113" y="0" on="1"/>
        <pt x="24" y="800" on="1"/>
        <pt x="138" y="800" on="1"/>
      </contour>
    </TTGlyph>
    <TTGlyph name="X" xMin="52" yMin="0" xMax="598" yMax="800">
      <contour>
        <pt x="325" y="442" on="1"/>
        <pt x="481" y="800" on="1"/>
        <pt x="598" y="800" on="1"/>
        <pt x="414" y="386" on="1"/>
        <pt x="585" y="0" on="1"/>
        <pt x="461" y="0" on="1"/>
        <pt x="325" y="329" on="1"/>
        <pt x="185" y="0" on="1"/>
        <pt x="65" y="0" on="1"/>
        <pt x="237" y="386" on="1"/>
        <pt x="52" y="800" on="1"/>
        <pt x="174" y="800" on="1"/>
      </contour>
    </TTGlyph>
    <TTGlyph name="Y" xMin="42" yMin="0" xMax="608" yMax="800">
      <contour>
        <pt x="326" y="453" on="1"/>
        <pt x="490" y="800" on="1"/>
        <pt x="608" y="800" on="1"/>
        <pt x="379" y="340" on="1"/>
        <pt x="379" y="0" on="1"/>
        <pt x="271" y="0" on="1"/>
        <pt x="271" y="340" on="1"/>
        <pt x="42" y="800" on="1"/>
        <pt x="162" y="800" on="1"/>
      </contour>
    </TTGlyph>
    <TTGlyph name="Z" xMin="99" yMin="0" xMax="551" yMax="800">
      <contour>
        <pt x="99" y="183" on="1"/>
        <pt x="483" y="696" on="1"/>
        <pt x="99" y="696" on="1"/>
        <pt x="99" y="800" on="1"/>
        <pt x="551" y="800" on="1"/>
        <pt x="551" y="617" on="1"/>
        <pt x="167" y="104" on="1"/>
        <pt x="551" y="104" on="1"/>
        <pt x="551" y="0" on="1"/>
        <pt x="99" y="0" on="1"/>
      </contour>
    </TTGlyph>
    <TTGlyph name="_part.multiply" xMin="107" yMin="132" xMax="543" yMax="568">
      <contour>
        <pt x="107" y="506" on="1"/>
        <pt x="169" y="568" on="1"/>
        <pt x="543" y="194" on="1"/>
        <pt x="481" y="132" on="1"/>
      </contour>
    </TTGlyph>
    <TTGlyph name="a" xMin="71" yMin="-16" xMax="529" yMax="615">
      <contour>
        <pt x="80" y="498" on="0"/>
        <pt x="210" y="615" on="0"/>
        <pt x="315" y="615" on="1"/>
        <pt x="418" y="615" on="0"/>
        <pt x="529" y="513" on="0"/>
        <pt x="529" y="420" on="1"/>
        <pt x="529" y="0" on="1"/>
        <pt x="425" y="0" on="1"/>
        <pt x="425" y="67" on="1"/>
        <pt x="396" y="67" on="1"/>
        <pt x="383" y="28" on="0"/>
        <pt x="313" y="-16" on="0"/>
        <pt x="264" y="-16" on="1"/>
        <pt x="189" y="-16" on="0"/>
        <pt x="99" y="76" on="0"/>
        <pt x="99" y="153" on="1"/>
        <pt x="99" y="229" on="0"/>
        <pt x="188" y="326" on="0"/>
        <pt x="273" y="343" on="1"/>
        <pt x="425" y="370" on="1"/>
        <pt x="425" y="401" on="1"/>
        <pt x="425" y="459" on="0"/>
        <pt x="369" y="518" on="0"/>
        <pt x="315" y="518" on="1"/>
        <pt x="256" y="518" on="0"/>
        <pt x="183" y="455" on="0"/>
        <pt x="176" y="397" on="1"/>
        <pt x="71" y="397" on="1"/>
      </contour>
      <contour>
        <pt x="205" y="121" on="0"/>
        <pt x="250" y="79" on="0"/>
        <pt x="292" y="79" on="1"/>
        <pt x="329" y="79" on="0"/>
        <pt x="390" y="120" on="0"/>
        <pt x="425" y="192" on="0"/>
        <pt x="425" y="235" on="1"/>
        <pt x="425" y="276" on="1"/>
        <pt x="293" y="252" on="1"/>
        <pt x="250" y="244" on="0"/>
        <pt x="205" y="197" on="0"/>
        <pt x="205" y="160" on="1"/>
      </contour>
    </TTGlyph>
    <TTGlyph name="ampersand" xMin="80" yMin="-23" xMax="570" yMax="816">
      <contour>
        <pt x="176" y="512" on="0"/>
        <pt x="139" y="601" on="0"/>
        <pt x="139" y="644" on="1"/>
        <pt x="139" y="724" on="0"/>
        <pt x="224" y="816" on="0"/>
        <pt x="298" y="816" on="1"/>
        <pt x="371" y="816" on="0"/>
        <pt x="454" y="725" on="0"/>
        <pt x="454" y="645" on="1"/>
        <pt x="454" y="583" on="0"/>
        <pt x="398" y="487" on="0"/>
        <pt x="348" y="439" on="1"/>
        <pt x="449" y="298" on="1"/>
        <pt x="458" y="357" on="0"/>
        <pt x="459" y="410" on="1"/>
        <pt x="556" y="410" on="1"/>
        <pt x="549" y="293" on="0"/>
        <pt x="520" y="199" on="1"/>
        <pt x="570" y="129" on="1"/>
        <pt x="570" y="-23" on="1"/>
        <pt x="477" y="103" on="1"/>
        <pt x="405" y="-16" on="0"/>
        <pt x="280" y="-16" on="1"/>
        <pt x="220" y="-16" on="0"/>
        <pt x="130" y="37" on="0"/>
        <pt x="80" y="133" on="0"/>
        <pt x="80" y="195" on="1"/>
        <pt x="80" y="252" on="0"/>
        <pt x="120" y="343" on="0"/>
        <pt x="178" y="409" on="0"/>
        <pt x="223" y="449" on="1"/>
        <pt x="217" y="457" on="1"/>
      </contour>
      <contour>
        <pt x="190" y="148" on="0"/>
        <pt x="243" y="88" on="0"/>
        <pt x="286" y="88" on="1"/>
        <pt x="373" y="88" on="0"/>
        <pt x="417" y="185" on="1"/>
        <pt x="279" y="373" on="1"/>
        <pt x="236" y="330" on="0"/>
        <pt x="190" y="249" on="0"/>
        <pt x="190" y="198" on="1"/>
      </contour>
      <contour>
        <pt x="243" y="610" on="0"/>
        <pt x="261" y="559" on="0"/>
        <pt x="282" y="531" on="1"/>
        <pt x="294" y="515" on="1"/>
        <pt x="350" y="574" on="0"/>
        <pt x="350" y="639" on="1"/>
        <pt x="350" y="673" on="0"/>
        <pt x="322" y="712" on="0"/>
        <pt x="298" y="712" on="1"/>
        <pt x="272" y="712" on="0"/>
        <pt x="243" y="672" on="0"/>
        <pt x="243" y="638" on="1"/>
      </contour>
    </TTGlyph>
    <TTGlyph name="approxequal" xMin="80" yMin="123" xMax="570" yMax="577">
      <component glyphName="asciitilde" x="0" y="121" flags="0x4"/>
      <component glyphName="asciitilde" x="0" y="-121" flags="0x4"/>
    </TTGlyph>
    <TTGlyph name="approxequal.case" xMin="80" yMin="173" xMax="570" yMax="627">
      <component glyphName="approxequal" x="0" y="50" flags="0x4"/>
    </TTGlyph>
    <TTGlyph name="asciicircum" xMin="109" yMin="528" xMax="541" yMax="816">
      <contour>
        <pt x="268" y="816" on="1"/>
        <pt x="382" y="816" on="1"/>
        <pt x="541" y="528" on="1"/>
        <pt x="439" y="528" on="1"/>
        <pt x="325" y="743" on="1"/>
        <pt x="211" y="528" on="1"/>
        <pt x="109" y="528" on="1"/>
      </contour>
    </TTGlyph>
    <TTGlyph name="asciitilde" xMin="80" yMin="244" xMax="570" yMax="456">
      <contour>
        <pt x="385" y="244" on="0"/>
        <pt x="327" y="282" on="0"/>
        <pt x="294" y="317" on="1"/>
        <pt x="268" y="343" on="0"/>
        <pt x="238" y="365" on="0"/>
        <pt x="219" y="365" on="1"/>
        <pt x="198" y="365" on="0"/>
        <pt x="170" y="327" on="0"/>
        <pt x="166" y="291" on="1"/>
        <pt x="80" y="291" on="1"/>
        <pt x="88" y="371" on="0"/>
        <pt x="161" y="456" on="0"/>
        <pt x="221" y="456" on="1"/>
        <pt x="265" y="456" on="0"/>
        <pt x="323" y="418" on="0"/>
        <pt x="356" y="383" on="1"/>
        <pt x="382" y="357" on="0"/>
        <pt x="412" y="335" on="0"/>
        <pt x="431" y="335" on="1"/>
        <pt x="452" y="335" on="0"/>
        <pt x="480" y="373" on="0"/>
        <pt x="484" y="409" on="1"/>
        <pt x="570" y="409" on="1"/>
        <pt x="562" y="329" on="0"/>
        <pt x="489" y="244" on="0"/>
        <pt x="429" y="244" on="1"/>
      </contour>
    </TTGlyph>
    <TTGlyph name="asciitilde.case" xMin="80" yMin="294" xMax="570" yMax="506">
      <component glyphName="asciitilde" x="0" y="50" flags="0x4"/>
    </TTGlyph>
    <TTGlyph name="asterisk" xMin="85" yMin="359" xMax="565" yMax="816">
      <contour>
        <pt x="380" y="816" on="1"/>
        <pt x="365" y="637" on="1"/>
        <pt x="532" y="706" on="1"/>
        <pt x="565" y="601" on="1"/>
        <pt x="390" y="560" on="1"/>
        <pt x="508" y="423" on="1"/>
        <pt x="419" y="359" on="1"/>
        <pt x="325" y="513" on="1"/>
        <pt x="231" y="359" on="1"/>
        <pt x="142" y="423" on="1"/>
        <pt x="260" y="560" on="1"/>
        <pt x="85" y="601" on="1"/>
        <pt x="118" y="706" on="1"/>
        <pt x="285" y="637" on="1"/>
        <pt x="270" y="816" on="1"/>
      </contour>
    </TTGlyph>
    <TTGlyph name="at" xMin="63" yMin="-133" xMax="579" yMax="816">
      <contour>
        <pt x="206" y="-133" on="0"/>
        <pt x="63" y="101" on="0"/>
        <pt x="63" y="340" on="1"/>
        <pt x="63" y="580" on="0"/>
        <pt x="204" y="816" on="0"/>
        <pt x="348" y="816" on="1"/>
        <pt x="465" y="816" on="0"/>
        <pt x="579" y="671" on="0"/>
        <pt x="579" y="523" on="1"/>
        <pt x="579" y="111" on="1"/>
        <pt x="505" y="111" on="1"/>
        <pt x="505" y="161" on="1"/>
        <pt x="476" y="161" on="1"/>
        <pt x="463" y="95" on="0"/>
        <pt x="383" y="95" on="1"/>
        <pt x="248" y="95" on="0"/>
        <pt x="248" y="340" on="1"/>
        <pt x="248" y="585" on="0"/>
        <pt x="383" y="585" on="1"/>
        <pt x="452" y="585" on="0"/>
        <pt x="467" y="519" on="1"/>
        <pt x="496" y="519" on="1"/>
        <pt x="496" y="523" on="1"/>
        <pt x="496" y="630" on="0"/>
        <pt x="423" y="734" on="0"/>
        <pt x="348" y="734" on="1"/>
        <pt x="247" y="734" on="0"/>
        <pt x="148" y="539" on="0"/>
        <pt x="148" y="340" on="1"/>
        <pt x="148" y="141" on="0"/>
        <pt x="249" y="-54" on="0"/>
        <pt x="352" y="-54" on="1"/>
        <pt x="433" y="-54" on="0"/>
        <pt x="476" y="-22" on="1"/>
        <pt x="476" y="-100" on="1"/>
        <pt x="433" y="-133" on="0"/>
        <pt x="352" y="-133" on="1"/>
      </contour>
      <contour>
        <pt x="334" y="258" on="0"/>
        <pt x="375" y="179" on="0"/>
        <pt x="417" y="179" on="1"/>
        <pt x="459" y="179" on="0"/>
        <pt x="500" y="258" on="0"/>
        <pt x="500" y="340" on="1"/>
        <pt x="500" y="422" on="0"/>
        <pt x="459" y="501" on="0"/>
        <pt x="417" y="501" on="1"/>
        <pt x="375" y="501" on="0"/>
        <pt x="334" y="422" on="0"/>
        <pt x="334" y="340" on="1"/>
      </contour>
    </TTGlyph>
    <TTGlyph name="b" xMin="104" yMin="-16" xMax="585" yMax="848">
      <contour>
        <pt x="321" y="-16" on="0"/>
        <pt x="249" y="33" on="0"/>
        <pt x="237" y="77" on="1"/>
        <pt x="208" y="77" on="1"/>
        <pt x="208" y="0" on="1"/>
        <pt x="104" y="0" on="1"/>
        <pt x="104" y="848" on="1"/>
        <pt x="208" y="848" on="1"/>
        <pt x="208" y="522" on="1"/>
        <pt x="237" y="522" on="1"/>
        <pt x="249" y="566" on="0"/>
        <pt x="321" y="615" on="0"/>
        <pt x="375" y="615" on="1"/>
        <pt x="473" y="615" on="0"/>
        <pt x="585" y="447" on="0"/>
        <pt x="585" y="299" on="1"/>
        <pt x="585" y="151" on="0"/>
        <pt x="473" y="-16" on="0"/>
        <pt x="375" y="-16" on="1"/>
      </contour>
      <contour>
        <pt x="202" y="193" on="0"/>
        <pt x="274" y="80" on="0"/>
        <pt x="341" y="80" on="1"/>
        <pt x="409" y="80" on="0"/>
        <pt x="480" y="193" on="0"/>
        <pt x="480" y="299" on="1"/>
        <pt x="480" y="406" on="0"/>
        <pt x="409" y="519" on="0"/>
        <pt x="341" y="519" on="1"/>
        <pt x="274" y="519" on="0"/>
        <pt x="202" y="406" on="0"/>
        <pt x="202" y="299" on="1"/>
      </contour>
    </TTGlyph>
    <TTGlyph name="backslash" xMin="116" yMin="-170" xMax="534" yMax="848">
      <contour>
        <pt x="218" y="848" on="1"/>
        <pt x="534" y="-170" on="1"/>
        <pt x="432" y="-170" on="1"/>
        <pt x="116" y="848" on="1"/>
      </contour>
    </TTGlyph>
    <TTGlyph name="bar" xMin="280" yMin="-60" xMax="370" yMax="860">
      <contour>
        <pt x="370" y="-60" on="1"/>
        <pt x="280" y="-60" on="1"/>
        <pt x="280" y="860" on="1"/>
        <pt x="370" y="860" on="1"/>
      </contour>
    </TTGlyph>
    <TTGlyph name="braceleft" xMin="228" yMin="-155" xMax="505" yMax="915">
      <contour>
        <pt x="452" y="819" on="0"/>
        <pt x="393" y="766" on="0"/>
        <pt x="393" y="724" on="1"/>
        <pt x="393" y="694" on="0"/>
        <pt x="403" y="628" on="1"/>
        <pt x="413" y="564" on="0"/>
        <pt x="413" y="532" on="1"/>
        <pt x="413" y="466" on="0"/>
        <pt x="355" y="394" on="0"/>
        <pt x="294" y="387" on="1"/>
        <pt x="294" y="373" on="1"/>
        <pt x="355" y="366" on="0"/>
        <pt x="413" y="294" on="0"/>
        <pt x="413" y="228" on="1"/>
        <pt x="413" y="198" on="0"/>
        <pt x="403" y="132" on="1"/>
        <pt x="393" y="68" on="0"/>
        <pt x="393" y="36" on="1"/>
        <pt x="393" y="-6" on="0"/>
        <pt x="452" y="-59" on="0"/>
        <pt x="505" y="-64" on="1"/>
        <pt x="505" y="-155" on="1"/>
        <pt x="411" y="-148" on="0"/>
        <pt x="298" y="-38" on="0"/>
        <pt x="298" y="45" on="1"/>
        <pt x="298" y="70" on="0"/>
        <pt x="308" y="124" on="1"/>
        <pt x="318" y="178" on="0"/>
        <pt x="318" y="205" on="1"/>
        <pt x="318" y="268" on="0"/>
        <pt x="275" y="326" on="0"/>
        <pt x="228" y="325" on="1"/>
        <pt x="228" y="435" on="1"/>
        <pt x="275" y="434" on="0"/>
        <pt x="318" y="492" on="0"/>
        <pt x="318" y="555" on="1"/>
        <pt x="318" y="582" on="0"/>
        <pt x="308" y="636" on="1"/>
        <pt x="298" y="690" on="0"/>
        <pt x="298" y="715" on="1"/>
        <pt x="298" y="798" on="0"/>
        <pt x="411" y="908" on="0"/>
        <pt x="505" y="915" on="1"/>
        <pt x="505" y="824" on="1"/>
      </contour>
    </TTGlyph>
    <TTGlyph name="braceright" xMin="145" yMin="-155" xMax="422" yMax="915">
      <contour>
        <pt x="239" y="908" on="0"/>
        <pt x="352" y="798" on="0"/>
        <pt x="352" y="715" on="1"/>
        <pt x="352" y="690" on="0"/>
        <pt x="342" y="636" on="1"/>
        <pt x="332" y="582" on="0"/>
        <pt x="332" y="555" on="1"/>
        <pt x="332" y="492" on="0"/>
        <pt x="375" y="434" on="0"/>
        <pt x="422" y="435" on="1"/>
        <pt x="422" y="325" on="1"/>
        <pt x="375" y="326" on="0"/>
        <pt x="332" y="268" on="0"/>
        <pt x="332" y="205" on="1"/>
        <pt x="332" y="178" on="0"/>
        <pt x="342" y="124" on="1"/>
        <pt x="352" y="70" on="0"/>
        <pt x="352" y="45" on="1"/>
        <pt x="352" y="-38" on="0"/>
        <pt x="239" y="-148" on="0"/>
        <pt x="145" y="-155" on="1"/>
        <pt x="145" y="-64" on="1"/>
        <pt x="198" y="-59" on="0"/>
        <pt x="257" y="-6" on="0"/>
        <pt x="257" y="36" on="1"/>
        <pt x="257" y="68" on="0"/>
        <pt x="247" y="132" on="1"/>
        <pt x="237" y="198" on="0"/>
        <pt x="237" y="228" on="1"/>
        <pt x="237" y="294" on="0"/>
        <pt x="295" y="366" on="0"/>
        <pt x="356" y="373" on="1"/>
        <pt x="356" y="387" on="1"/>
        <pt x="295" y="394" on="0"/>
        <pt x="237" y="466" on="0"/>
        <pt x="237" y="532" on="1"/>
        <pt x="237" y="564" on="0"/>
        <pt x="247" y="628" on="1"/>
        <pt x="257" y="694" on="0"/>
        <pt x="257" y="724" on="1"/>
        <pt x="257" y="766" on="0"/>
        <pt x="198" y="819" on="0"/>
        <pt x="145" y="824" on="1"/>
        <pt x="145" y="915" on="1"/>
      </contour>
    </TTGlyph>
    <TTGlyph name="bracketleft" xMin="286" yMin="-145" xMax="505" yMax="905">
      <contour>
        <pt x="505" y="816" on="1"/>
        <pt x="379" y="816" on="1"/>
        <pt x="379" y="-56" on="1"/>
        <pt x="505" y="-56" on="1"/>
        <pt x="505" y="-145" on="1"/>
        <pt x="286" y="-145" on="1"/>
        <pt x="286" y="905" on="1"/>
        <pt x="505" y="905" on="1"/>
      </contour>
    </TTGlyph>
    <TTGlyph name="bracketright" xMin="145" yMin="-145" xMax="364" yMax="905">
      <contour>
        <pt x="364" y="905" on="1"/>
        <pt x="364" y="-145" on="1"/>
        <pt x="145" y="-145" on="1"/>
        <pt x="145" y="-56" on="1"/>
        <pt x="271" y="-56" on="1"/>
        <pt x="271" y="816" on="1"/>
        <pt x="145" y="816" on="1"/>
        <pt x="145" y="905" on="1"/>
      </contour>
    </TTGlyph>
    <TTGlyph name="bullet" xMin="146" yMin="171" xMax="504" yMax="529">
      <contour>
        <pt x="237" y="171" on="0"/>
        <pt x="146" y="262" on="0"/>
        <pt x="146" y="350" on="1"/>
        <pt x="146" y="438" on="0"/>
        <pt x="237" y="529" on="0"/>
        <pt x="325" y="529" on="1"/>
        <pt x="413" y="529" on="0"/>
        <pt x="504" y="438" on="0"/>
        <pt x="504" y="350" on="1"/>
        <pt x="504" y="262" on="0"/>
        <pt x="413" y="171" on="0"/>
        <pt x="325" y="171" on="1"/>
      </contour>
    </TTGlyph>
    <TTGlyph name="c" xMin="95" yMin="-16" xMax="576" yMax="615">
      <contour>
        <pt x="225" y="-16" on="0"/>
        <pt x="95" y="150" on="0"/>
        <pt x="95" y="297" on="1"/>
        <pt x="95" y="396" on="0"/>
        <pt x="155" y="539" on="0"/>
        <pt x="269" y="615" on="0"/>
        <pt x="347" y="615" on="1"/>
        <pt x="446" y="615" on="0"/>
        <pt x="569" y="482" on="0"/>
        <pt x="576" y="368" on="1"/>
        <pt x="478" y="368" on="1"/>
        <pt x="471" y="441" on="0"/>
        <pt x="401" y="518" on="0"/>
        <pt x="345" y="518" on="1"/>
        <pt x="274" y="518" on="0"/>
        <pt x="198" y="404" on="0"/>
        <pt x="198" y="297" on="1"/>
        <pt x="198" y="192" on="0"/>
        <pt x="271" y="81" on="0"/>
        <pt x="339" y="81" on="1"/>
        <pt x="394" y="81" on="0"/>
        <pt x="459" y="149" on="0"/>
        <pt x="466" y="213" on="1"/>
        <pt x="565" y="213" on="1"/>
        <pt x="558" y="107" on="0"/>
        <pt x="436" y="-16" on="0"/>
        <pt x="339" y="-16" on="1"/>
      </contour>
    </TTGlyph>
    <TTGlyph name="cent" xMin="95" yMin="-101" xMax="576" yMax="699">
      <contour>
        <pt x="301" y="-13" on="1"/>
        <pt x="204" y="1" on="0"/>
        <pt x="95" y="163" on="0"/>
        <pt x="95" y="297" on="1"/>
        <pt x="95" y="431" on="0"/>
        <pt x="204" y="595" on="0"/>
        <pt x="301" y="611" on="1"/>
        <pt x="301" y="699" on="1"/>
        <pt x="377" y="699" on="1"/>
        <pt x="377" y="613" on="1"/>
        <pt x="464" y="603" on="0"/>
        <pt x="570" y="473" on="0"/>
        <pt x="576" y="368" on="1"/>
        <pt x="478" y="368" on="1"/>
        <pt x="472" y="429" on="0"/>
        <pt x="420" y="504" on="0"/>
        <pt x="377" y="514" on="1"/>
        <pt x="377" y="86" on="1"/>
        <pt x="415" y="97" on="0"/>
        <pt x="461" y="161" on="0"/>
        <pt x="466" y="213" on="1"/>
        <pt x="565" y="213" on="1"/>
        <pt x="558" y="118" on="0"/>
        <pt x="458" y="-2" on="0"/>
        <pt x="377" y="-13" on="1"/>
        <pt x="377" y="-101" on="1"/>
        <pt x="301" y="-101" on="1"/>
      </contour>
      <contour>
        <pt x="198" y="208" on="0"/>
        <pt x="251" y="100" on="0"/>
        <pt x="301" y="86" on="1"/>
        <pt x="301" y="512" on="1"/>
        <pt x="251" y="495" on="0"/>
        <pt x="198" y="386" on="0"/>
        <pt x="198" y="297" on="1"/>
      </contour>
    </TTGlyph>
    <TTGlyph name="cent.bold" xMin="95" yMin="-101" xMax="576" yMax="699">
      <contour>
        <pt x="377" y="699" on="1"/>
        <pt x="377" y="613" on="1"/>
        <pt x="464" y="603" on="0"/>
        <pt x="570" y="473" on="0"/>
        <pt x="576" y="368" on="1"/>
        <pt x="478" y="368" on="1"/>
        <pt x="471" y="441" on="0"/>
        <pt x="401" y="518" on="0"/>
        <pt x="345" y="518" on="1"/>
        <pt x="274" y="518" on="0"/>
        <pt x="198" y="404" on="0"/>
        <pt x="198" y="297" on="1"/>
        <pt x="198" y="192" on="0"/>
        <pt x="271" y="81" on="0"/>
        <pt x="339" y="81" on="1"/>
        <pt x="394" y="81" on="0"/>
        <pt x="459" y="149" on="0"/>
        <pt x="466" y="213" on="1"/>
        <pt x="565" y="213" on="1"/>
        <pt x="558" y="118" on="0"/>
        <pt x="458" y="-2" on="0"/>
        <pt x="377" y="-13" on="1"/>
        <pt x="377" y="-101" on="1"/>
        <pt x="301" y="-101" on="1"/>
        <pt x="301" y="-13" on="1"/>
        <pt x="204" y="1" on="0"/>
        <pt x="95" y="163" on="0"/>
        <pt x="95" y="297" on="1"/>
        <pt x="95" y="431" on="0"/>
        <pt x="204" y="595" on="0"/>
        <pt x="301" y="611" on="1"/>
        <pt x="301" y="699" on="1"/>
      </contour>
    </TTGlyph>
    <TTGlyph name="colon" xMin="243" yMin="-8" xMax="407" yMax="607">
      <component glyphName="period" x="0" y="0" flags="0x0"/>
      <component glyphName="period" x="0" y="429" flags="0x4"/>
    </TTGlyph>
    <TTGlyph name="colon.case" xMin="243" yMin="93" xMax="407" yMax="708">
      <component glyphName="colon" x="0" y="101" flags="0x4"/>
    </TTGlyph>
    <TTGlyph name="comma" xMin="233" yMin="-179" xMax="417" yMax="178">
      <contour>
        <pt x="285" y="-8" on="0"/>
        <pt x="243" y="40" on="0"/>
        <pt x="243" y="85" on="1"/>
        <pt x="243" y="131" on="0"/>
        <pt x="285" y="178" on="0"/>
        <pt x="325" y="178" on="1"/>
        <pt x="372" y="178" on="0"/>
        <pt x="417" y="121" on="0"/>
        <pt x="417" y="62" on="1"/>
        <pt x="417" y="-84" on="0"/>
        <pt x="356" y="-179" on="1"/>
        <pt x="233" y="-179" on="1"/>
        <pt x="331" y="-102" on="0"/>
        <pt x="347" y="-6" on="1"/>
        <pt x="333" y="-8" on="0"/>
        <pt x="325" y="-8" on="1"/>
      </contour>
    </TTGlyph>
    <TTGlyph name="copyright" xMin="60" yMin="105" xMax="590" yMax="695">
      <contour>
        <pt x="248" y="105" on="0"/>
        <pt x="128" y="180" on="0"/>
        <pt x="60" y="315" on="0"/>
        <pt x="60" y="400" on="1"/>
        <pt x="60" y="485" on="0"/>
        <pt x="128" y="620" on="0"/>
        <pt x="248" y="695" on="0"/>
        <pt x="325" y="695" on="1"/>
        <pt x="402" y="695" on="0"/>
        <pt x="522" y="620" on="0"/>
        <pt x="590" y="485" on="0"/>
        <pt x="590" y="400" on="1"/>
        <pt x="590" y="315" on="0"/>
        <pt x="522" y="180" on="0"/>
        <pt x="402" y="105" on="0"/>
        <pt x="325" y="105" on="1"/>
      </contour>
      <contour>
        <pt x="121" y="330" on="0"/>
        <pt x="172" y="224" on="0"/>
        <pt x="264" y="166" on="0"/>
        <pt x="325" y="166" on="1"/>
        <pt x="386" y="166" on="0"/>
        <pt x="478" y="224" on="0"/>
        <pt x="529" y="330" on="0"/>
        <pt x="529" y="400" on="1"/>
        <pt x="529" y="470" on="0"/>
        <pt x="478" y="576" on="0"/>
        <pt x="386" y="634" on="0"/>
        <pt x="325" y="634" on="1"/>
        <pt x="264" y="634" on="0"/>
        <pt x="172" y="576" on="0"/>
        <pt x="121" y="470" on="0"/>
        <pt x="121" y="400" on="1"/>
      </contour>
      <contour>
        <pt x="196" y="470" on="0"/>
        <pt x="269" y="554" on="0"/>
        <pt x="328" y="554" on="1"/>
        <pt x="380" y="554" on="0"/>
        <pt x="448" y="487" on="0"/>
        <pt x="455" y="429" on="1"/>
        <pt x="393" y="429" on="1"/>
        <pt x="389" y="460" on="0"/>
        <pt x="354" y="495" on="0"/>
        <pt x="328" y="495" on="1"/>
        <pt x="295" y="495" on="0"/>
        <pt x="257" y="444" on="0"/>
        <pt x="257" y="400" on="1"/>
        <pt x="257" y="358" on="0"/>
        <pt x="295" y="308" on="0"/>
        <pt x="326" y="308" on="1"/>
        <pt x="348" y="308" on="0"/>
        <pt x="378" y="337" on="0"/>
        <pt x="381" y="362" on="1"/>
        <pt x="444" y="362" on="1"/>
        <pt x="439" y="312" on="0"/>
        <pt x="374" y="249" on="0"/>
        <pt x="326" y="249" on="1"/>
        <pt x="269" y="249" on="0"/>
        <pt x="196" y="334" on="0"/>
        <pt x="196" y="400" on="1"/>
      </contour>
    </TTGlyph>
    <TTGlyph name="currency" xMin="72" yMin="97" xMax="578" yMax="603">
      <contour>
        <pt x="260" y="140" on="0"/>
        <pt x="205" y="177" on="1"/>
        <pt x="126" y="97" on="1"/>
        <pt x="72" y="151" on="1"/>
        <pt x="152" y="230" on="1"/>
        <pt x="115" y="285" on="0"/>
        <pt x="115" y="350" on="1"/>
        <pt x="115" y="415" on="0"/>
        <pt x="152" y="470" on="1"/>
        <pt x="72" y="549" on="1"/>
        <pt x="126" y="603" on="1"/>
        <pt x="205" y="523" on="1"/>
        <pt x="260" y="560" on="0"/>
        <pt x="325" y="560" on="1"/>
        <pt x="390" y="560" on="0"/>
        <pt x="445" y="523" on="1"/>
        <pt x="524" y="603" on="1"/>
        <pt x="578" y="549" on="1"/>
        <pt x="498" y="470" on="1"/>
        <pt x="535" y="415" on="0"/>
        <pt x="535" y="350" on="1"/>
        <pt x="535" y="285" on="0"/>
        <pt x="498" y="230" on="1"/>
        <pt x="578" y="151" on="1"/>
        <pt x="524" y="97" on="1"/>
        <pt x="445" y="177" on="1"/>
        <pt x="390" y="140" on="0"/>
        <pt x="325" y="140" on="1"/>
      </contour>
      <contour>
        <pt x="200" y="298" on="0"/>
        <pt x="273" y="225" on="0"/>
        <pt x="325" y="225" on="1"/>
        <pt x="377" y="225" on="0"/>
        <pt x="450" y="298" on="0"/>
        <pt x="450" y="350" on="1"/>
        <pt x="450" y="402" on="0"/>
        <pt x="377" y="475" on="0"/>
        <pt x="325" y="475" on="1"/>
        <pt x="273" y="475" on="0"/>
        <pt x="200" y="402" on="0"/>
        <pt x="200" y="350" on="1"/>
      </contour>
    </TTGlyph>
    <TTGlyph name="d" xMin="65" yMin="-16" xMax="546" yMax="848">
      <contour>
        <pt x="177" y="-16" on="0"/>
        <pt x="65" y="151" on="0"/>
        <pt x="65" y="299" on="1"/>
        <pt x="65" y="447" on="0"/>
        <pt x="177" y="615" on="0"/>
        <pt x="275" y="615" on="1"/>
        <pt x="329" y="615" on="0"/>
        <pt x="401" y="566" on="0"/>
        <pt x="413" y="522" on="1"/>
        <pt x="442" y="522" on="1"/>
        <pt x="442" y="848" on="1"/>
        <pt x="546" y="848" on="1"/>
        <pt x="546" y="0" on="1"/>
        <pt x="442" y="0" on="1"/>
        <pt x="442" y="77" on="1"/>
        <pt x="413" y="77" on="1"/>
        <pt x="401" y="33" on="0"/>
        <pt x="329" y="-16" on="0"/>
        <pt x="275" y="-16" on="1"/>
      </contour>
      <contour>
        <pt x="170" y="193" on="0"/>
        <pt x="241" y="80" on="0"/>
        <pt x="309" y="80" on="1"/>
        <pt x="376" y="80" on="0"/>
        <pt x="448" y="193" on="0"/>
        <pt x="448" y="299" on="1"/>
        <pt x="448" y="406" on="0"/>
        <pt x="376" y="519" on="0"/>
        <pt x="309" y="519" on="1"/>
        <pt x="241" y="519" on="0"/>
        <pt x="170" y="406" on="0"/>
        <pt x="170" y="299" on="1"/>
      </contour>
    </TTGlyph>
    <TTGlyph name="divide" xMin="86" yMin="91" xMax="564" yMax="610">
      <component glyphName="minus" x="0" y="0" flags="0x0"/>
      <component glyphName="uni0307" x="241" y="-237" flags="0x4"/>
      <component glyphName="uni0307" x="241" y="-601" flags="0x4"/>
    </TTGlyph>
    <TTGlyph name="divide.case" xMin="86" yMin="141" xMax="564" yMax="660">
      <component glyphName="divide" x="0" y="50" flags="0x4"/>
    </TTGlyph>
    <TTGlyph name="dollar" xMin="86" yMin="-100" xMax="590" yMax="900">
      <contour>
        <pt x="206" y="106" on="0"/>
        <pt x="297" y="91" on="1"/>
        <pt x="297" y="349" on="1"/>
        <pt x="296" y="349" on="1"/>
        <pt x="197" y="365" on="0"/>
        <pt x="94" y="479" on="0"/>
        <pt x="94" y="575" on="1"/>
        <pt x="94" y="677" on="0"/>
        <pt x="201" y="803" on="0"/>
        <pt x="297" y="814" on="1"/>
        <pt x="297" y="900" on="1"/>
        <pt x="374" y="900" on="1"/>
        <pt x="374" y="814" on="1"/>
        <pt x="470" y="804" on="0"/>
        <pt x="582" y="682" on="0"/>
        <pt x="590" y="576" on="1"/>
        <pt x="482" y="576" on="1"/>
        <pt x="470" y="692" on="0"/>
        <pt x="374" y="709" on="1"/>
        <pt x="374" y="448" on="1"/>
        <pt x="472" y="431" on="0"/>
        <pt x="572" y="318" on="0"/>
        <pt x="572" y="223" on="1"/>
        <pt x="572" y="121" on="0"/>
        <pt x="468" y="-3" on="0"/>
        <pt x="374" y="-14" on="1"/>
        <pt x="374" y="-100" on="1"/>
        <pt x="297" y="-100" on="1"/>
        <pt x="297" y="-14" on="1"/>
        <pt x="202" y="-5" on="0"/>
        <pt x="95" y="106" on="0"/>
        <pt x="86" y="204" on="1"/>
        <pt x="195" y="204" on="1"/>
      </contour>
      <contour>
        <pt x="202" y="478" on="0"/>
        <pt x="297" y="460" on="1"/>
        <pt x="297" y="708" on="1"/>
        <pt x="251" y="697" on="0"/>
        <pt x="202" y="629" on="0"/>
        <pt x="202" y="575" on="1"/>
      </contour>
      <contour>
        <pt x="418" y="102" on="0"/>
        <pt x="464" y="169" on="0"/>
        <pt x="464" y="223" on="1"/>
        <pt x="464" y="318" on="0"/>
        <pt x="374" y="337" on="1"/>
        <pt x="374" y="92" on="1"/>
      </contour>
    </TTGlyph>
    <TTGlyph name="dollar.bold" xMin="86" yMin="-100" xMax="590" yMax="900">
      <contour>
        <pt x="201" y="145" on="0"/>
        <pt x="271" y="88" on="0"/>
        <pt x="336" y="88" on="1"/>
        <pt x="398" y="88" on="0"/>
        <pt x="464" y="158" on="0"/>
        <pt x="464" y="223" on="1"/>
        <pt x="464" y="274" on="0"/>
        <pt x="413" y="332" on="0"/>
        <pt x="360" y="340" on="1"/>
        <pt x="296" y="349" on="1"/>
        <pt x="197" y="365" on="0"/>
        <pt x="94" y="479" on="0"/>
        <pt x="94" y="575" on="1"/>
        <pt x="94" y="677" on="0"/>
        <pt x="201" y="803" on="0"/>
        <pt x="297" y="814" on="1"/>
        <pt x="297" y="900" on="1"/>
        <pt x="374" y="900" on="1"/>
        <pt x="374" y="814" on="1"/>
        <pt x="470" y="804" on="0"/>
        <pt x="582" y="682" on="0"/>
        <pt x="590" y="576" on="1"/>
        <pt x="482" y="576" on="1"/>
        <pt x="469" y="712" on="0"/>
        <pt x="338" y="712" on="1"/>
        <pt x="273" y="712" on="0"/>
        <pt x="202" y="641" on="0"/>
        <pt x="202" y="575" on="1"/>
        <pt x="202" y="524" on="0"/>
        <pt x="253" y="466" on="0"/>
        <pt x="306" y="458" on="1"/>
        <pt x="370" y="449" on="1"/>
        <pt x="470" y="433" on="0"/>
        <pt x="572" y="319" on="0"/>
        <pt x="572" y="223" on="1"/>
        <pt x="572" y="121" on="0"/>
        <pt x="468" y="-3" on="0"/>
        <pt x="374" y="-14" on="1"/>
        <pt x="374" y="-100" on="1"/>
        <pt x="297" y="-100" on="1"/>
        <pt x="297" y="-14" on="1"/>
        <pt x="202" y="-5" on="0"/>
        <pt x="95" y="106" on="0"/>
        <pt x="86" y="204" on="1"/>
        <pt x="195" y="204" on="1"/>
      </contour>
    </TTGlyph>
    <TTGlyph name="dotlessi" xMin="138" yMin="0" xMax="568" yMax="599">
      <contour>
        <pt x="405" y="599" on="1"/>
        <pt x="405" y="97" on="1"/>
        <pt x="568" y="97" on="1"/>
        <pt x="568" y="0" on="1"/>
        <pt x="138" y="0" on="1"/>
        <pt x="138" y="97" on="1"/>
        <pt x="301" y="97" on="1"/>
        <pt x="301" y="502" on="1"/>
        <pt x="138" y="502" on="1"/>
        <pt x="138" y="599" on="1"/>
      </contour>
    </TTGlyph>
    <TTGlyph name="e" xMin="94" yMin="-16" xMax="571" yMax="615">
      <contour>
        <pt x="94" y="450" on="0"/>
        <pt x="223" y="615" on="0"/>
        <pt x="336" y="615" on="1"/>
        <pt x="443" y="615" on="0"/>
        <pt x="557" y="460" on="0"/>
        <pt x="557" y="314" on="1"/>
        <pt x="557" y="292" on="0"/>
        <pt x="555" y="266" on="1"/>
        <pt x="196" y="266" on="1"/>
        <pt x="202" y="173" on="0"/>
        <pt x="274" y="79" on="0"/>
        <pt x="338" y="79" on="1"/>
        <pt x="440" y="79" on="0"/>
        <pt x="471" y="184" on="1"/>
        <pt x="571" y="184" on="1"/>
        <pt x="550" y="87" on="0"/>
        <pt x="430" y="-16" on="0"/>
        <pt x="338" y="-16" on="1"/>
        <pt x="220" y="-16" on="0"/>
        <pt x="94" y="149" on="0"/>
        <pt x="94" y="305" on="1"/>
      </contour>
      <contour>
        <pt x="458" y="358" on="1"/>
        <pt x="446" y="520" on="0"/>
        <pt x="336" y="520" on="1"/>
        <pt x="277" y="520" on="0"/>
        <pt x="206" y="437" on="0"/>
        <pt x="198" y="358" on="1"/>
      </contour>
    </TTGlyph>
    <TTGlyph name="eight" xMin="64" yMin="-16" xMax="586" yMax="816">
      <contour>
        <pt x="395" y="452" on="0"/>
        <pt x="474" y="521" on="0"/>
        <pt x="474" y="582" on="1"/>
        <pt x="474" y="642" on="0"/>
        <pt x="395" y="712" on="0"/>
        <pt x="325" y="712" on="1"/>
        <pt x="255" y="712" on="0"/>
        <pt x="176" y="642" on="0"/>
        <pt x="176" y="582" on="1"/>
        <pt x="176" y="521" on="0"/>
        <pt x="255" y="452" on="0"/>
        <pt x="325" y="452" on="1"/>
      </contour>
      <contour>
        <pt x="64" y="281" on="0"/>
        <pt x="136" y="376" on="0"/>
        <pt x="199" y="386" on="1"/>
        <pt x="199" y="415" on="1"/>
        <pt x="137" y="425" on="0"/>
        <pt x="66" y="520" on="0"/>
        <pt x="66" y="592" on="1"/>
        <pt x="66" y="696" on="0"/>
        <pt x="204" y="816" on="0"/>
        <pt x="325" y="816" on="1"/>
        <pt x="446" y="816" on="0"/>
        <pt x="584" y="696" on="0"/>
        <pt x="584" y="592" on="1"/>
        <pt x="584" y="520" on="0"/>
        <pt x="513" y="425" on="0"/>
        <pt x="451" y="415" on="1"/>
        <pt x="451" y="386" on="1"/>
        <pt x="514" y="376" on="0"/>
        <pt x="586" y="281" on="0"/>
        <pt x="586" y="209" on="1"/>
        <pt x="586" y="105" on="0"/>
        <pt x="446" y="-16" on="0"/>
        <pt x="325" y="-16" on="1"/>
        <pt x="204" y="-16" on="0"/>
        <pt x="64" y="105" on="0"/>
        <pt x="64" y="209" on="1"/>
      </contour>
      <contour>
        <pt x="174" y="158" on="0"/>
        <pt x="255" y="88" on="0"/>
        <pt x="325" y="88" on="1"/>
        <pt x="395" y="88" on="0"/>
        <pt x="476" y="158" on="0"/>
        <pt x="476" y="219" on="1"/>
        <pt x="476" y="280" on="0"/>
        <pt x="396" y="349" on="0"/>
        <pt x="325" y="349" on="1"/>
        <pt x="254" y="349" on="0"/>
        <pt x="174" y="280" on="0"/>
        <pt x="174" y="219" on="1"/>
      </contour>
    </TTGlyph>
    <TTGlyph name="ellipsis" xMin="45" yMin="-8" xMax="605" yMax="178">
      <contour>
        <pt x="293" y="-8" on="0"/>
        <pt x="258" y="40" on="0"/>
        <pt x="258" y="85" on="1"/>
        <pt x="258" y="131" on="0"/>
        <pt x="293" y="178" on="0"/>
        <pt x="325" y="178" on="1"/>
        <pt x="358" y="178" on="0"/>
        <pt x="393" y="131" on="0"/>
        <pt x="393" y="85" on="1"/>
        <pt x="393" y="40" on="0"/>
        <pt x="358" y="-8" on="0"/>
        <pt x="325" y="-8" on="1"/>
      </contour>
      <contour>
        <pt x="45" y="131" on="0"/>
        <pt x="80" y="178" on="0"/>
        <pt x="112" y="178" on="1"/>
        <pt x="145" y="178" on="0"/>
        <pt x="180" y="131" on="0"/>
        <pt x="180" y="85" on="1"/>
        <pt x="180" y="40" on="0"/>
        <pt x="145" y="-8" on="0"/>
        <pt x="112" y="-8" on="1"/>
        <pt x="80" y="-8" on="0"/>
        <pt x="45" y="40" on="0"/>
        <pt x="45" y="85" on="1"/>
      </contour>
      <contour>
        <pt x="470" y="131" on="0"/>
        <pt x="505" y="178" on="0"/>
        <pt x="538" y="178" on="1"/>
        <pt x="570" y="178" on="0"/>
        <pt x="605" y="131" on="0"/>
        <pt x="605" y="85" on="1"/>
        <pt x="605" y="40" on="0"/>
        <pt x="570" y="-8" on="0"/>
        <pt x="538" y="-8" on="1"/>
        <pt x="505" y="-8" on="0"/>
        <pt x="470" y="40" on="0"/>
        <pt x="470" y="85" on="1"/>
      </contour>
    </TTGlyph>
    <TTGlyph name="emdash" xMin="42" yMin="303" xMax="608" yMax="397">
      <contour>
        <pt x="608" y="397" on="1"/>
        <pt x="608" y="303" on="1"/>
        <pt x="42" y="303" on="1"/>
        <pt x="42" y="397" on="1"/>
      </contour>
    </TTGlyph>
    <TTGlyph name="emdash.case" xMin="42" yMin="353" xMax="608" yMax="447">
      <component glyphName="emdash" x="0" y="50" flags="0x4"/>
    </TTGlyph>
    <TTGlyph name="endash" xMin="70" yMin="303" xMax="580" yMax="397">
      <contour>
        <pt x="580" y="397" on="1"/>
        <pt x="580" y="303" on="1"/>
        <pt x="70" y="303" on="1"/>
        <pt x="70" y="397" on="1"/>
      </contour>
    </TTGlyph>
    <TTGlyph name="endash.case" xMin="70" yMin="353" xMax="580" yMax="447">
      <component glyphName="endash" x="0" y="50" flags="0x4"/>
    </TTGlyph>
    <TTGlyph name="equal" xMin="90" yMin="169" xMax="560" yMax="531">
      <contour>
        <pt x="90" y="531" on="1"/>
        <pt x="560" y="531" on="1"/>
        <pt x="560" y="436" on="1"/>
        <pt x="90" y="436" on="1"/>
      </contour>
      <contour>
        <pt x="90" y="264" on="1"/>
        <pt x="560" y="264" on="1"/>
        <pt x="560" y="169" on="1"/>
        <pt x="90" y="169" on="1"/>
      </contour>
    </TTGlyph>
    <TTGlyph name="equal.case" xMin="90" yMin="219" xMax="560" yMax="581">
      <component glyphName="equal" x="0" y="50" flags="0x4"/>
    </TTGlyph>
    <TTGlyph name="exclam" xMin="245" yMin="-7" xMax="405" yMax="800">
      <contour>
        <pt x="379" y="800" on="1"/>
        <pt x="379" y="225" on="1"/>
        <pt x="271" y="225" on="1"/>
        <pt x="271" y="800" on="1"/>
      </contour>
      <contour>
        <pt x="245" y="113" on="0"/>
        <pt x="286" y="153" on="0"/>
        <pt x="325" y="153" on="1"/>
        <pt x="364" y="153" on="0"/>
        <pt x="405" y="113" on="0"/>
        <pt x="405" y="73" on="1"/>
        <pt x="405" y="35" on="0"/>
        <pt x="364" y="-7" on="0"/>
        <pt x="325" y="-7" on="1"/>
        <pt x="286" y="-7" on="0"/>
        <pt x="245" y="35" on="0"/>
        <pt x="245" y="73" on="1"/>
      </contour>
    </TTGlyph>
    <TTGlyph name="f" xMin="126" yMin="0" xMax="624" yMax="864">
      <contour>
        <pt x="248" y="0" on="1"/>
        <pt x="248" y="502" on="1"/>
        <pt x="126" y="502" on="1"/>
        <pt x="126" y="599" on="1"/>
        <pt x="248" y="599" on="1"/>
        <pt x="248" y="672" on="1"/>
        <pt x="248" y="763" on="0"/>
        <pt x="345" y="864" on="0"/>
        <pt x="433" y="864" on="1"/>
        <pt x="517" y="864" on="0"/>
        <pt x="618" y="772" on="0"/>
        <pt x="624" y="690" on="1"/>
        <pt x="521" y="690" on="1"/>
        <pt x="513" y="767" on="0"/>
        <pt x="433" y="767" on="1"/>
        <pt x="393" y="767" on="0"/>
        <pt x="352" y="719" on="0"/>
        <pt x="352" y="672" on="1"/>
        <pt x="352" y="599" on="1"/>
        <pt x="552" y="599" on="1"/>
        <pt x="552" y="502" on="1"/>
        <pt x="352" y="502" on="1"/>
        <pt x="352" y="0" on="1"/>
      </contour>
    </TTGlyph>
    <TTGlyph name="five" xMin="76" yMin="-16" xMax="582" yMax="800">
      <contour>
        <pt x="567" y="800" on="1"/>
        <pt x="567" y="696" on="1"/>
        <pt x="212" y="696" on="1"/>
        <pt x="212" y="460" on="1"/>
        <pt x="241" y="460" on="1"/>
        <pt x="251" y="495" on="0"/>
        <pt x="315" y="533" on="0"/>
        <pt x="365" y="533" on="1"/>
        <pt x="470" y="533" on="0"/>
        <pt x="582" y="395" on="0"/>
        <pt x="582" y="265" on="1"/>
        <pt x="582" y="129" on="0"/>
        <pt x="453" y="-16" on="0"/>
        <pt x="332" y="-16" on="1"/>
        <pt x="219" y="-16" on="0"/>
        <pt x="86" y="116" on="0"/>
        <pt x="76" y="239" on="1"/>
        <pt x="191" y="239" on="1"/>
        <pt x="198" y="166" on="0"/>
        <pt x="272" y="88" on="0"/>
        <pt x="332" y="88" on="1"/>
        <pt x="400" y="88" on="0"/>
        <pt x="472" y="180" on="0"/>
        <pt x="472" y="265" on="1"/>
        <pt x="472" y="346" on="0"/>
        <pt x="400" y="433" on="0"/>
        <pt x="334" y="433" on="1"/>
        <pt x="288" y="433" on="0"/>
        <pt x="219" y="387" on="0"/>
        <pt x="202" y="345" on="1"/>
        <pt x="104" y="345" on="1"/>
        <pt x="104" y="800" on="1"/>
      </contour>
    </TTGlyph>
    <TTGlyph name="four" xMin="55" yMin="0" xMax="599" yMax="800">
      <contour>
        <pt x="486" y="337" on="1"/>
        <pt x="599" y="337" on="1"/>
        <pt x="599" y="233" on="1"/>
        <pt x="486" y="233" on="1"/>
        <pt x="486" y="0" on="1"/>
        <pt x="379" y="0" on="1"/>
        <pt x="379" y="233" on="1"/>
        <pt x="55" y="233" on="1"/>
        <pt x="55" y="381" on="1"/>
        <pt x="295" y="800" on="1"/>
        <pt x="486" y="800" on="1"/>
      </contour>
      <contour>
        <pt x="379" y="337" on="1"/>
        <pt x="379" y="739" on="1"/>
        <pt x="145" y="337" on="1"/>
      </contour>
    </TTGlyph>
    <TTGlyph name="g" xMin="73" yMin="-216" xMax="541" yMax="615">
      <contour>
        <pt x="541" y="-95" on="0"/>
        <pt x="418" y="-216" on="0"/>
        <pt x="309" y="-216" on="1"/>
        <pt x="205" y="-216" on="0"/>
        <pt x="80" y="-116" on="0"/>
        <pt x="73" y="-28" on="1"/>
        <pt x="184" y="-28" on="1"/>
        <pt x="189" y="-72" on="0"/>
        <pt x="254" y="-119" on="0"/>
        <pt x="309" y="-119" on="1"/>
        <pt x="371" y="-119" on="0"/>
        <pt x="437" y="-52" on="0"/>
        <pt x="437" y="12" on="1"/>
        <pt x="437" y="118" on="1"/>
        <pt x="408" y="118" on="1"/>
        <pt x="396" y="77" on="0"/>
        <pt x="328" y="32" on="0"/>
        <pt x="276" y="32" on="1"/>
        <pt x="182" y="32" on="0"/>
        <pt x="76" y="186" on="0"/>
        <pt x="76" y="323" on="1"/>
        <pt x="76" y="460" on="0"/>
        <pt x="182" y="615" on="0"/>
        <pt x="276" y="615" on="1"/>
        <pt x="328" y="615" on="0"/>
        <pt x="396" y="570" on="0"/>
        <pt x="408" y="528" on="1"/>
        <pt x="437" y="528" on="1"/>
        <pt x="437" y="599" on="1"/>
        <pt x="541" y="599" on="1"/>
        <pt x="541" y="12" on="1"/>
      </contour>
      <contour>
        <pt x="180" y="230" on="0"/>
        <pt x="250" y="127" on="0"/>
        <pt x="312" y="127" on="1"/>
        <pt x="376" y="127" on="0"/>
        <pt x="443" y="228" on="0"/>
        <pt x="443" y="323" on="1"/>
        <pt x="443" y="418" on="0"/>
        <pt x="376" y="519" on="0"/>
        <pt x="312" y="519" on="1"/>
        <pt x="250" y="519" on="0"/>
        <pt x="180" y="416" on="0"/>
        <pt x="180" y="323" on="1"/>
      </contour>
    </TTGlyph>
    <TTGlyph name="grave" xMin="167" yMin="577" xMax="483" yMax="848">
      <contour>
        <pt x="304" y="848" on="1"/>
        <pt x="483" y="577" on="1"/>
        <pt x="384" y="577" on="1"/>
        <pt x="167" y="848" on="1"/>
      </contour>
    </TTGlyph>
    <TTGlyph name="greater" xMin="110" yMin="44" xMax="540" yMax="656">
      <contour>
        <pt x="110" y="44" on="1"/>
        <pt x="110" y="153" on="1"/>
        <pt x="471" y="345" on="1"/>
        <pt x="471" y="355" on="1"/>
        <pt x="110" y="547" on="1"/>
        <pt x="110" y="656" on="1"/>
        <pt x="540" y="422" on="1"/>
        <pt x="540" y="278" on="1"/>
      </contour>
    </TTGlyph>
    <TTGlyph name="greater.case" xMin="110" yMin="94" xMax="540" yMax="706">
      <component glyphName="greater" x="0" y="50" flags="0x4"/>
    </TTGlyph>
    <TTGlyph name="guillemotleft" xMin="87" yMin="45" xMax="540" yMax="655">
      <contour>
        <pt x="87" y="276" on="1"/>
        <pt x="87" y="422" on="1"/>
        <pt x="340" y="655" on="1"/>
        <pt x="340" y="523" on="1"/>
        <pt x="147" y="351" on="1"/>
        <pt x="340" y="181" on="1"/>
        <pt x="340" y="45" on="1"/>
      </contour>
      <contour>
        <pt x="328" y="419" on="1"/>
        <pt x="540" y="592" on="1"/>
        <pt x="540" y="470" on="1"/>
        <pt x="389" y="351" on="1"/>
        <pt x="540" y="234" on="1"/>
        <pt x="540" y="108" on="1"/>
        <pt x="328" y="279" on="1"/>
      </contour>
    </TTGlyph>
    <TTGlyph name="guillemotright" xMin="110" yMin="45" xMax="563" yMax="655">
      <contour>
        <pt x="310" y="181" on="1"/>
        <pt x="503" y="351" on="1"/>
        <pt x="310" y="523" on="1"/>
        <pt x="310" y="655" on="1"/>
        <pt x="563" y="422" on="1"/>
        <pt x="563" y="276" on="1"/>
        <pt x="310" y="45" on="1"/>
      </contour>
      <contour>
        <pt x="110" y="234" on="1"/>
        <pt x="261" y="351" on="1"/>
        <pt x="110" y="470" on="1"/>
        <pt x="110" y="592" on="1"/>
        <pt x="322" y="419" on="1"/>
        <pt x="322" y="279" on="1"/>
        <pt x="110" y="108" on="1"/>
      </contour>
    </TTGlyph>
    <TTGlyph name="h" xMin="110" yMin="0" xMax="551" yMax="848">
      <contour>
        <pt x="214" y="848" on="1"/>
        <pt x="214" y="524" on="1"/>
        <pt x="243" y="524" on="1"/>
        <pt x="254" y="567" on="0"/>
        <pt x="326" y="615" on="0"/>
        <pt x="379" y="615" on="1"/>
        <pt x="458" y="615" on="0"/>
        <pt x="551" y="499" on="0"/>
        <pt x="551" y="401" on="1"/>
        <pt x="551" y="0" on="1"/>
        <pt x="447" y="0" on="1"/>
        <pt x="447" y="374" on="1"/>
        <pt x="447" y="518" on="0"/>
        <pt x="331" y="518" on="1"/>
        <pt x="214" y="518" on="0"/>
        <pt x="214" y="374" on="1"/>
        <pt x="214" y="0" on="1"/>
        <pt x="110" y="0" on="1"/>
        <pt x="110" y="848" on="1"/>
      </contour>
    </TTGlyph>
    <TTGlyph name="hyphen" xMin="86" yMin="303" xMax="564" yMax="397">
      <component glyphName="minus" x="0" y="0" flags="0x0"/>
    </TTGlyph>
    <TTGlyph name="hyphen.case" xMin="86" yMin="353" xMax="564" yMax="447">
      <component glyphName="minus.case" x="0" y="0" flags="0x0"/>
    </TTGlyph>
    <TTGlyph name="i" xMin="138" yMin="0" xMax="568" yMax="846">
      <component glyphName="dotlessi" x="0" y="0" flags="0x0"/>
      <component glyphName="uni0307" x="269" y="-1" flags="0x4"/>
    </TTGlyph>
    <TTGlyph name="j" xMin="88" yMin="-216" xMax="494" yMax="846">
      <component glyphName="uni0237" x="0" y="0" flags="0x0"/>
      <component glyphName="uni0307" x="330" y="-1" flags="0x4"/>
    </TTGlyph>
    <TTGlyph name="k" xMin="134" yMin="0" xMax="611" yMax="848">
      <contour>
        <pt x="238" y="848" on="1"/>
        <pt x="238" y="324" on="1"/>
        <pt x="485" y="599" on="1"/>
        <pt x="611" y="599" on="1"/>
        <pt x="336" y="297" on="1"/>
        <pt x="602" y="0" on="1"/>
        <pt x="471" y="0" on="1"/>
        <pt x="238" y="260" on="1"/>
        <pt x="238" y="0" on="1"/>
        <pt x="134" y="0" on="1"/>
        <pt x="134" y="848" on="1"/>
      </contour>
    </TTGlyph>
    <TTGlyph name="l" xMin="123" yMin="0" xMax="553" yMax="848">
      <contour>
        <pt x="390" y="848" on="1"/>
        <pt x="390" y="97" on="1"/>
        <pt x="553" y="97" on="1"/>
        <pt x="553" y="0" on="1"/>
        <pt x="123" y="0" on="1"/>
        <pt x="123" y="97" on="1"/>
        <pt x="286" y="97" on="1"/>
        <pt x="286" y="751" on="1"/>
        <pt x="123" y="751" on="1"/>
        <pt x="123" y="848" on="1"/>
      </contour>
    </TTGlyph>
    <TTGlyph name="less" xMin="110" yMin="44" xMax="540" yMax="656">
      <contour>
        <pt x="540" y="656" on="1"/>
        <pt x="540" y="547" on="1"/>
        <pt x="179" y="355" on="1"/>
        <pt x="179" y="345" on="1"/>
        <pt x="540" y="153" on="1"/>
        <pt x="540" y="44" on="1"/>
        <pt x="110" y="278" on="1"/>
        <pt x="110" y="422" on="1"/>
      </contour>
    </TTGlyph>
    <TTGlyph name="less.case" xMin="110" yMin="94" xMax="540" yMax="706">
      <contour>
        <pt x="540" y="706" on="1"/>
        <pt x="540" y="597" on="1"/>
        <pt x="179" y="405" on="1"/>
        <pt x="179" y="395" on="1"/>
        <pt x="540" y="203" on="1"/>
        <pt x="540" y="94" on="1"/>
        <pt x="110" y="328" on="1"/>
        <pt x="110" y="472" on="1"/>
      </contour>
    </TTGlyph>
    <TTGlyph name="m" xMin="73" yMin="0" xMax="581" yMax="615">
      <contour>
        <pt x="177" y="599" on="1"/>
        <pt x="177" y="541" on="1"/>
        <pt x="208" y="541" on="1"/>
        <pt x="214" y="577" on="0"/>
        <pt x="254" y="615" on="0"/>
        <pt x="286" y="615" on="1"/>
        <pt x="317" y="615" on="0"/>
        <pt x="359" y="577" on="0"/>
        <pt x="369" y="540" on="1"/>
        <pt x="395" y="540" on="1"/>
        <pt x="402" y="577" on="0"/>
        <pt x="447" y="615" on="0"/>
        <pt x="484" y="615" on="1"/>
        <pt x="531" y="615" on="0"/>
        <pt x="581" y="538" on="0"/>
        <pt x="581" y="465" on="1"/>
        <pt x="581" y="0" on="1"/>
        <pt x="477" y="0" on="1"/>
        <pt x="477" y="443" on="1"/>
        <pt x="477" y="513" on="0"/>
        <pt x="428" y="513" on="1"/>
        <pt x="379" y="513" on="0"/>
        <pt x="379" y="443" on="1"/>
        <pt x="379" y="0" on="1"/>
        <pt x="275" y="0" on="1"/>
        <pt x="275" y="443" on="1"/>
        <pt x="275" y="513" on="0"/>
        <pt x="226" y="513" on="1"/>
        <pt x="177" y="513" on="0"/>
        <pt x="177" y="443" on="1"/>
        <pt x="177" y="0" on="1"/>
        <pt x="73" y="0" on="1"/>
        <pt x="73" y="599" on="1"/>
      </contour>
    </TTGlyph>
    <TTGlyph name="minus" xMin="86" yMin="303" xMax="564" yMax="397">
      <contour>
        <pt x="86" y="397" on="1"/>
        <pt x="564" y="397" on="1"/>
        <pt x="564" y="303" on="1"/>
        <pt x="86" y="303" on="1"/>
      </contour>
    </TTGlyph>
    <TTGlyph name="minus.case" xMin="86" yMin="353" xMax="564" yMax="447">
      <component glyphName="minus" x="0" y="50" flags="0x4"/>
    </TTGlyph>
    <TTGlyph name="multiply" xMin="107" yMin="132" xMax="543" yMax="568">
      <contour>
        <pt x="325" y="288" on="1"/>
        <pt x="169" y="132" on="1"/>
        <pt x="107" y="194" on="1"/>
        <pt x="263" y="350" on="1"/>
        <pt x="107" y="506" on="1"/>
        <pt x="169" y="568" on="1"/>
        <pt x="325" y="412" on="1"/>
        <pt x="481" y="568" on="1"/>
        <pt x="543" y="506" on="1"/>
        <pt x="387" y="350" on="1"/>
        <pt x="543" y="194" on="1"/>
        <pt x="481" y="132" on="1"/>
      </contour>
    </TTGlyph>
    <TTGlyph name="multiply.case" xMin="107" yMin="182" xMax="543" yMax="618">
      <component glyphName="multiply" x="0" y="50" flags="0x4"/>
    </TTGlyph>
    <TTGlyph name="n" xMin="110" yMin="0" xMax="551" yMax="615">
      <contour>
        <pt x="214" y="599" on="1"/>
        <pt x="214" y="524" on="1"/>
        <pt x="243" y="524" on="1"/>
        <pt x="254" y="567" on="0"/>
        <pt x="326" y="615" on="0"/>
        <pt x="379" y="615" on="1"/>
        <pt x="458" y="615" on="0"/>
        <pt x="551" y="499" on="0"/>
        <pt x="551" y="401" on="1"/>
        <pt x="551" y="0" on="1"/>
        <pt x="447" y="0" on="1"/>
        <pt x="447" y="374" on="1"/>
        <pt x="447" y="518" on="0"/>
        <pt x="331" y="518" on="1"/>
        <pt x="214" y="518" on="0"/>
        <pt x="214" y="374" on="1"/>
        <pt x="214" y="0" on="1"/>
        <pt x="110" y="0" on="1"/>
        <pt x="110" y="599" on="1"/>
      </contour>
    </TTGlyph>
    <TTGlyph name="nine" xMin="68" yMin="0" xMax="582" yMax="816">
      <contour>
        <pt x="404" y="816" on="0"/>
        <pt x="520" y="750" on="0"/>
        <pt x="582" y="627" on="0"/>
        <pt x="582" y="545" on="1"/>
        <pt x="582" y="433" on="0"/>
        <pt x="514" y="324" on="1"/>
        <pt x="318" y="0" on="1"/>
        <pt x="192" y="0" on="1"/>
        <pt x="382" y="303" on="1"/>
        <pt x="360" y="319" on="1"/>
        <pt x="348" y="307" on="0"/>
        <pt x="304" y="293" on="0"/>
        <pt x="279" y="293" on="1"/>
        <pt x="218" y="293" on="0"/>
        <pt x="122" y="358" on="0"/>
        <pt x="68" y="473" on="0"/>
        <pt x="68" y="545" on="1"/>
        <pt x="68" y="627" on="0"/>
        <pt x="131" y="750" on="0"/>
        <pt x="248" y="816" on="0"/>
        <pt x="326" y="816" on="1"/>
      </contour>
      <contour>
        <pt x="178" y="469" on="0"/>
        <pt x="258" y="378" on="0"/>
        <pt x="325" y="378" on="1"/>
        <pt x="392" y="378" on="0"/>
        <pt x="472" y="469" on="0"/>
        <pt x="472" y="545" on="1"/>
        <pt x="472" y="621" on="0"/>
        <pt x="392" y="712" on="0"/>
        <pt x="325" y="712" on="1"/>
        <pt x="258" y="712" on="0"/>
        <pt x="178" y="621" on="0"/>
        <pt x="178" y="545" on="1"/>
      </contour>
    </TTGlyph>
    <TTGlyph name="notequal" xMin="90" yMin="10" xMax="560" yMax="690">
      <contour>
        <pt x="90" y="531" on="1"/>
        <pt x="362" y="531" on="1"/>
        <pt x="436" y="690" on="1"/>
        <pt x="532" y="690" on="1"/>
        <pt x="458" y="531" on="1"/>
        <pt x="560" y="531" on="1"/>
        <pt x="560" y="436" on="1"/>
        <pt x="413" y="436" on="1"/>
        <pt x="333" y="264" on="1"/>
        <pt x="560" y="264" on="1"/>
        <pt x="560" y="169" on="1"/>
        <pt x="288" y="169" on="1"/>
        <pt x="214" y="10" on="1"/>
        <pt x="118" y="10" on="1"/>
        <pt x="192" y="169" on="1"/>
        <pt x="90" y="169" on="1"/>
        <pt x="90" y="264" on="1"/>
        <pt x="237" y="264" on="1"/>
        <pt x="317" y="436" on="1"/>
        <pt x="90" y="436" on="1"/>
      </contour>
    </TTGlyph>
    <TTGlyph name="notequal.case" xMin="90" yMin="60" xMax="560" yMax="740">
      <component glyphName="notequal" x="0" y="50" flags="0x4"/>
    </TTGlyph>
    <TTGlyph name="numbersign" xMin="45" yMin="0" xMax="605" yMax="800">
      <contour>
        <pt x="304" y="597" on="1"/>
        <pt x="423" y="597" on="1"/>
        <pt x="463" y="800" on="1"/>
        <pt x="549" y="800" on="1"/>
        <pt x="509" y="597" on="1"/>
        <pt x="605" y="597" on="1"/>
        <pt x="605" y="507" on="1"/>
        <pt x="491" y="507" on="1"/>
        <pt x="450" y="293" on="1"/>
        <pt x="551" y="293" on="1"/>
        <pt x="551" y="203" on="1"/>
        <pt x="432" y="203" on="1"/>
        <pt x="392" y="0" on="1"/>
        <pt x="306" y="0" on="1"/>
        <pt x="346" y="203" on="1"/>
        <pt x="227" y="203" on="1"/>
        <pt x="187" y="0" on="1"/>
        <pt x="101" y="0" on="1"/>
        <pt x="141" y="203" on="1"/>
        <pt x="45" y="203" on="1"/>
        <pt x="45" y="293" on="1"/>
        <pt x="159" y="293" on="1"/>
        <pt x="200" y="507" on="1"/>
        <pt x="99" y="507" on="1"/>
        <pt x="99" y="597" on="1"/>
        <pt x="218" y="597" on="1"/>
        <pt x="258" y="800" on="1"/>
        <pt x="344" y="800" on="1"/>
      </contour>
      <contour>
        <pt x="364" y="293" on="1"/>
        <pt x="405" y="507" on="1"/>
        <pt x="286" y="507" on="1"/>
        <pt x="245" y="293" on="1"/>
      </contour>
    </TTGlyph>
    <TTGlyph name="o" xMin="79" yMin="-16" xMax="571" yMax="615">
      <contour>
        <pt x="209" y="-16" on="0"/>
        <pt x="79" y="152" on="0"/>
        <pt x="79" y="300" on="1"/>
        <pt x="79" y="448" on="0"/>
        <pt x="209" y="615" on="0"/>
        <pt x="325" y="615" on="1"/>
        <pt x="441" y="615" on="0"/>
        <pt x="571" y="448" on="0"/>
        <pt x="571" y="300" on="1"/>
        <pt x="571" y="152" on="0"/>
        <pt x="441" y="-16" on="0"/>
        <pt x="325" y="-16" on="1"/>
      </contour>
      <contour>
        <pt x="181" y="194" on="0"/>
        <pt x="256" y="81" on="0"/>
        <pt x="325" y="81" on="1"/>
        <pt x="394" y="81" on="0"/>
        <pt x="469" y="194" on="0"/>
        <pt x="469" y="300" on="1"/>
        <pt x="469" y="405" on="0"/>
        <pt x="394" y="518" on="0"/>
        <pt x="325" y="518" on="1"/>
        <pt x="256" y="518" on="0"/>
        <pt x="181" y="405" on="0"/>
        <pt x="181" y="300" on="1"/>
      </contour>
    </TTGlyph>
    <TTGlyph name="one" xMin="100" yMin="0" xMax="597" yMax="800">
      <contour>
        <pt x="411" y="98" on="1"/>
        <pt x="597" y="98" on="1"/>
        <pt x="597" y="0" on="1"/>
        <pt x="100" y="0" on="1"/>
        <pt x="100" y="98" on="1"/>
        <pt x="303" y="98" on="1"/>
        <pt x="303" y="706" on="1"/>
        <pt x="100" y="565" on="1"/>
        <pt x="100" y="693" on="1"/>
        <pt x="265" y="800" on="1"/>
        <pt x="411" y="800" on="1"/>
      </contour>
    </TTGlyph>
    <TTGlyph name="p" xMin="104" yMin="-200" xMax="585" yMax="615">
      <contour>
        <pt x="473" y="615" on="0"/>
        <pt x="585" y="447" on="0"/>
        <pt x="585" y="299" on="1"/>
        <pt x="585" y="151" on="0"/>
        <pt x="473" y="-16" on="0"/>
        <pt x="375" y="-16" on="1"/>
        <pt x="321" y="-16" on="0"/>
        <pt x="249" y="33" on="0"/>
        <pt x="237" y="77" on="1"/>
        <pt x="208" y="77" on="1"/>
        <pt x="208" y="-200" on="1"/>
        <pt x="104" y="-200" on="1"/>
        <pt x="104" y="599" on="1"/>
        <pt x="208" y="599" on="1"/>
        <pt x="208" y="522" on="1"/>
        <pt x="237" y="522" on="1"/>
        <pt x="249" y="566" on="0"/>
        <pt x="321" y="615" on="0"/>
        <pt x="375" y="615" on="1"/>
      </contour>
      <contour>
        <pt x="202" y="193" on="0"/>
        <pt x="274" y="80" on="0"/>
        <pt x="341" y="80" on="1"/>
        <pt x="409" y="80" on="0"/>
        <pt x="480" y="193" on="0"/>
        <pt x="480" y="299" on="1"/>
        <pt x="480" y="406" on="0"/>
        <pt x="409" y="519" on="0"/>
        <pt x="341" y="519" on="1"/>
        <pt x="274" y="519" on="0"/>
        <pt x="202" y="406" on="0"/>
        <pt x="202" y="299" on="1"/>
      </contour>
    </TTGlyph>
    <TTGlyph name="parenleft" xMin="228" yMin="-154" xMax="517" yMax="914">
      <contour>
        <pt x="428" y="766" on="0"/>
        <pt x="332" y="539" on="0"/>
        <pt x="332" y="385" on="1"/>
        <pt x="332" y="225" on="0"/>
        <pt x="428" y="-5" on="0"/>
        <pt x="517" y="-60" on="1"/>
        <pt x="517" y="-154" on="1"/>
        <pt x="427" y="-110" on="0"/>
        <pt x="297" y="49" on="0"/>
        <pt x="228" y="261" on="0"/>
        <pt x="228" y="383" on="1"/>
        <pt x="228" y="504" on="0"/>
        <pt x="298" y="714" on="0"/>
        <pt x="428" y="871" on="0"/>
        <pt x="517" y="914" on="1"/>
        <pt x="517" y="820" on="1"/>
      </contour>
    </TTGlyph>
    <TTGlyph name="parenright" xMin="133" yMin="-154" xMax="422" yMax="914">
      <contour>
        <pt x="222" y="871" on="0"/>
        <pt x="352" y="714" on="0"/>
        <pt x="422" y="504" on="0"/>
        <pt x="422" y="383" on="1"/>
        <pt x="422" y="261" on="0"/>
        <pt x="353" y="49" on="0"/>
        <pt x="223" y="-110" on="0"/>
        <pt x="133" y="-154" on="1"/>
        <pt x="133" y="-60" on="1"/>
        <pt x="222" y="-5" on="0"/>
        <pt x="318" y="225" on="0"/>
        <pt x="318" y="385" on="1"/>
        <pt x="318" y="539" on="0"/>
        <pt x="222" y="766" on="0"/>
        <pt x="133" y="820" on="1"/>
        <pt x="133" y="914" on="1"/>
      </contour>
    </TTGlyph>
    <TTGlyph name="percent" xMin="41" yMin="-16" xMax="609" yMax="816">
      <contour>
        <pt x="41" y="244" on="1"/>
        <pt x="609" y="649" on="1"/>
        <pt x="609" y="556" on="1"/>
        <pt x="41" y="151" on="1"/>
      </contour>
      <contour>
        <pt x="60" y="728" on="0"/>
        <pt x="131" y="816" on="0"/>
        <pt x="199" y="816" on="1"/>
        <pt x="267" y="816" on="0"/>
        <pt x="338" y="728" on="0"/>
        <pt x="338" y="643" on="1"/>
        <pt x="338" y="558" on="0"/>
        <pt x="267" y="470" on="0"/>
        <pt x="199" y="470" on="1"/>
        <pt x="131" y="470" on="0"/>
        <pt x="60" y="558" on="0"/>
        <pt x="60" y="643" on="1"/>
      </contour>
      <contour>
        <pt x="152" y="561" on="0"/>
        <pt x="199" y="561" on="1"/>
        <pt x="245" y="561" on="0"/>
        <pt x="245" y="643" on="1"/>
        <pt x="245" y="725" on="0"/>
        <pt x="199" y="725" on="1"/>
        <pt x="152" y="725" on="0"/>
        <pt x="152" y="643" on="1"/>
      </contour>
      <contour>
        <pt x="312" y="242" on="0"/>
        <pt x="383" y="330" on="0"/>
        <pt x="451" y="330" on="1"/>
        <pt x="519" y="330" on="0"/>
        <pt x="590" y="242" on="0"/>
        <pt x="590" y="157" on="1"/>
        <pt x="590" y="72" on="0"/>
        <pt x="519" y="-16" on="0"/>
        <pt x="451" y="-16" on="1"/>
        <pt x="383" y="-16" on="0"/>
        <pt x="312" y="72" on="0"/>
        <pt x="312" y="157" on="1"/>
      </contour>
      <contour>
        <pt x="405" y="75" on="0"/>
        <pt x="451" y="75" on="1"/>
        <pt x="498" y="75" on="0"/>
        <pt x="498" y="157" on="1"/>
        <pt x="498" y="239" on="0"/>
        <pt x="451" y="239" on="1"/>
        <pt x="405" y="239" on="0"/>
        <pt x="405" y="157" on="1"/>
      </contour>
    </TTGlyph>
    <TTGlyph name="percent.cv01" xMin="60" yMin="-16" xMax="590" yMax="816">
      <contour>
        <pt x="380" y="-16" on="0"/>
        <pt x="312" y="87" on="0"/>
        <pt x="312" y="195" on="1"/>
        <pt x="312" y="300" on="0"/>
        <pt x="380" y="400" on="0"/>
        <pt x="451" y="400" on="1"/>
        <pt x="523" y="400" on="0"/>
        <pt x="590" y="300" on="0"/>
        <pt x="590" y="195" on="1"/>
        <pt x="590" y="87" on="0"/>
        <pt x="523" y="-16" on="0"/>
        <pt x="451" y="-16" on="1"/>
      </contour>
      <contour>
        <pt x="60" y="713" on="0"/>
        <pt x="127" y="816" on="0"/>
        <pt x="199" y="816" on="1"/>
        <pt x="270" y="816" on="0"/>
        <pt x="338" y="713" on="0"/>
        <pt x="338" y="605" on="1"/>
        <pt x="338" y="500" on="0"/>
        <pt x="270" y="400" on="0"/>
        <pt x="199" y="400" on="1"/>
        <pt x="127" y="400" on="0"/>
        <pt x="60" y="500" on="0"/>
        <pt x="60" y="605" on="1"/>
      </contour>
      <contour>
        <pt x="209" y="340" on="1"/>
        <pt x="287" y="340" on="1"/>
        <pt x="173" y="0" on="1"/>
        <pt x="90" y="0" on="1"/>
      </contour>
      <contour>
        <pt x="152" y="546" on="0"/>
        <pt x="175" y="491" on="0"/>
        <pt x="199" y="491" on="1"/>
        <pt x="222" y="491" on="0"/>
        <pt x="245" y="546" on="0"/>
        <pt x="245" y="605" on="1"/>
        <pt x="245" y="666" on="0"/>
        <pt x="222" y="725" on="0"/>
        <pt x="199" y="725" on="1"/>
        <pt x="175" y="725" on="0"/>
        <pt x="152" y="666" on="0"/>
        <pt x="152" y="605" on="1"/>
      </contour>
      <contour>
        <pt x="477" y="800" on="1"/>
        <pt x="560" y="800" on="1"/>
        <pt x="441" y="460" on="1"/>
        <pt x="363" y="460" on="1"/>
      </contour>
      <contour>
        <pt x="405" y="134" on="0"/>
        <pt x="428" y="75" on="0"/>
        <pt x="451" y="75" on="1"/>
        <pt x="475" y="75" on="0"/>
        <pt x="498" y="134" on="0"/>
        <pt x="498" y="195" on="1"/>
        <pt x="498" y="254" on="0"/>
        <pt x="475" y="309" on="0"/>
        <pt x="451" y="309" on="1"/>
        <pt x="428" y="309" on="0"/>
        <pt x="405" y="254" on="0"/>
        <pt x="405" y="195" on="1"/>
      </contour>
    </TTGlyph>
    <TTGlyph name="percent.cv02" xMin="60" yMin="-17" xMax="590" yMax="817">
      <contour>
        <pt x="383" y="-16" on="0"/>
        <pt x="312" y="72" on="0"/>
        <pt x="312" y="157" on="1"/>
        <pt x="312" y="242" on="0"/>
        <pt x="383" y="330" on="0"/>
        <pt x="451" y="330" on="1"/>
        <pt x="519" y="330" on="0"/>
        <pt x="590" y="242" on="0"/>
        <pt x="590" y="157" on="1"/>
        <pt x="590" y="72" on="0"/>
        <pt x="519" y="-16" on="0"/>
        <pt x="451" y="-16" on="1"/>
      </contour>
      <contour>
        <pt x="60" y="728" on="0"/>
        <pt x="131" y="816" on="0"/>
        <pt x="199" y="816" on="1"/>
        <pt x="267" y="816" on="0"/>
        <pt x="338" y="728" on="0"/>
        <pt x="338" y="643" on="1"/>
        <pt x="338" y="558" on="0"/>
        <pt x="267" y="470" on="0"/>
        <pt x="199" y="470" on="1"/>
        <pt x="131" y="470" on="0"/>
        <pt x="60" y="558" on="0"/>
        <pt x="60" y="643" on="1"/>
      </contour>
      <contour>
        <pt x="93" y="111" on="1"/>
        <pt x="557" y="817" on="1"/>
        <pt x="557" y="689" on="1"/>
        <pt x="93" y="-17" on="1"/>
      </contour>
      <contour>
        <pt x="152" y="561" on="0"/>
        <pt x="199" y="561" on="1"/>
        <pt x="245" y="561" on="0"/>
        <pt x="245" y="643" on="1"/>
        <pt x="245" y="725" on="0"/>
        <pt x="199" y="725" on="1"/>
        <pt x="152" y="725" on="0"/>
        <pt x="152" y="643" on="1"/>
      </contour>
      <contour>
        <pt x="405" y="75" on="0"/>
        <pt x="451" y="75" on="1"/>
        <pt x="498" y="75" on="0"/>
        <pt x="498" y="157" on="1"/>
        <pt x="498" y="239" on="0"/>
        <pt x="451" y="239" on="1"/>
        <pt x="405" y="239" on="0"/>
        <pt x="405" y="157" on="1"/>
      </contour>
    </TTGlyph>
    <TTGlyph name="period" xMin="243" yMin="-8" xMax="407" yMax="178">
      <contour>
        <pt x="285" y="-8" on="0"/>
        <pt x="243" y="40" on="0"/>
        <pt x="243" y="85" on="1"/>
        <pt x="243" y="131" on="0"/>
        <pt x="285" y="178" on="0"/>
        <pt x="325" y="178" on="1"/>
        <pt x="365" y="178" on="0"/>
        <pt x="407" y="131" on="0"/>
        <pt x="407" y="85" on="1"/>
        <pt x="407" y="40" on="0"/>
        <pt x="365" y="-8" on="0"/>
        <pt x="325" y="-8" on="1"/>
      </contour>
    </TTGlyph>
    <TTGlyph name="plus" xMin="86" yMin="111" xMax="564" yMax="589">
      <contour>
        <pt x="86" y="397" on="1"/>
        <pt x="278" y="397" on="1"/>
        <pt x="278" y="589" on="1"/>
        <pt x="372" y="589" on="1"/>
        <pt x="372" y="397" on="1"/>
        <pt x="564" y="397" on="1"/>
        <pt x="564" y="303" on="1"/>
        <pt x="372" y="303" on="1"/>
        <pt x="372" y="111" on="1"/>
        <pt x="278" y="111" on="1"/>
        <pt x="278" y="303" on="1"/>
        <pt x="86" y="303" on="1"/>
      </contour>
    </TTGlyph>
    <TTGlyph name="plus.case" xMin="86" yMin="161" xMax="564" yMax="639">
      <component glyphName="plus" x="0" y="50" flags="0x4"/>
    </TTGlyph>
    <TTGlyph name="q" xMin="65" yMin="-200" xMax="546" yMax="615">
      <contour>
        <pt x="329" y="615" on="0"/>
        <pt x="401" y="566" on="0"/>
        <pt x="413" y="522" on="1"/>
        <pt x="442" y="522" on="1"/>
        <pt x="442" y="599" on="1"/>
        <pt x="546" y="599" on="1"/>
        <pt x="546" y="-200" on="1"/>
        <pt x="442" y="-200" on="1"/>
        <pt x="442" y="77" on="1"/>
        <pt x="413" y="77" on="1"/>
        <pt x="401" y="33" on="0"/>
        <pt x="329" y="-16" on="0"/>
        <pt x="275" y="-16" on="1"/>
        <pt x="177" y="-16" on="0"/>
        <pt x="65" y="151" on="0"/>
        <pt x="65" y="299" on="1"/>
        <pt x="65" y="447" on="0"/>
        <pt x="177" y="615" on="0"/>
        <pt x="275" y="615" on="1"/>
      </contour>
      <contour>
        <pt x="170" y="193" on="0"/>
        <pt x="241" y="80" on="0"/>
        <pt x="309" y="80" on="1"/>
        <pt x="376" y="80" on="0"/>
        <pt x="448" y="193" on="0"/>
        <pt x="448" y="299" on="1"/>
        <pt x="448" y="406" on="0"/>
        <pt x="376" y="519" on="0"/>
        <pt x="309" y="519" on="1"/>
        <pt x="241" y="519" on="0"/>
        <pt x="170" y="406" on="0"/>
        <pt x="170" y="299" on="1"/>
      </contour>
    </TTGlyph>
    <TTGlyph name="question" xMin="71" yMin="-7" xMax="568" yMax="816">
      <contour>
        <pt x="251" y="281" on="0"/>
        <pt x="282" y="361" on="0"/>
        <pt x="328" y="413" on="0"/>
        <pt x="365" y="444" on="1"/>
        <pt x="396" y="471" on="0"/>
        <pt x="433" y="510" on="0"/>
        <pt x="458" y="566" on="0"/>
        <pt x="458" y="603" on="1"/>
        <pt x="458" y="653" on="0"/>
        <pt x="390" y="712" on="0"/>
        <pt x="331" y="712" on="1"/>
        <pt x="267" y="712" on="0"/>
        <pt x="191" y="641" on="0"/>
        <pt x="185" y="576" on="1"/>
        <pt x="71" y="576" on="1"/>
        <pt x="84" y="691" on="0"/>
        <pt x="220" y="816" on="0"/>
        <pt x="331" y="816" on="1"/>
        <pt x="441" y="816" on="0"/>
        <pt x="568" y="702" on="0"/>
        <pt x="568" y="603" on="1"/>
        <pt x="568" y="550" on="0"/>
        <pt x="536" y="472" on="0"/>
        <pt x="491" y="421" on="0"/>
        <pt x="454" y="389" on="1"/>
        <pt x="421" y="360" on="0"/>
        <pt x="383" y="319" on="0"/>
        <pt x="359" y="262" on="0"/>
        <pt x="359" y="225" on="1"/>
        <pt x="251" y="225" on="1"/>
      </contour>
      <contour>
        <pt x="227" y="113" on="0"/>
        <pt x="268" y="153" on="0"/>
        <pt x="307" y="153" on="1"/>
        <pt x="346" y="153" on="0"/>
        <pt x="387" y="113" on="0"/>
        <pt x="387" y="73" on="1"/>
        <pt x="387" y="35" on="0"/>
        <pt x="346" y="-7" on="0"/>
        <pt x="307" y="-7" on="1"/>
        <pt x="268" y="-7" on="0"/>
        <pt x="227" y="35" on="0"/>
        <pt x="227" y="73" on="1"/>
      </contour>
    </TTGlyph>
    <TTGlyph name="quotedbl" xMin="162" yMin="461" xMax="488" yMax="848">
      <component glyphName="quotesingle" x="-105" y="0" flags="0x0"/>
      <component glyphName="quotesingle" x="105" y="0" flags="0x0"/>
    </TTGlyph>
    <TTGlyph name="quotedblbase" xMin="97" yMin="-179" xMax="523" yMax="178">
      <component glyphName="comma" x="-136" y="0" flags="0x0"/>
      <component glyphName="comma" x="106" y="0" flags="0x0"/>
    </TTGlyph>
    <TTGlyph name="quotedblleft" xMin="127" yMin="479" xMax="553" yMax="836">
      <contour>
        <pt x="501" y="665" on="0"/>
        <pt x="543" y="617" on="0"/>
        <pt x="543" y="572" on="1"/>
        <pt x="543" y="526" on="0"/>
        <pt x="501" y="479" on="0"/>
        <pt x="461" y="479" on="1"/>
        <pt x="414" y="479" on="0"/>
        <pt x="369" y="536" on="0"/>
        <pt x="369" y="595" on="1"/>
        <pt x="369" y="741" on="0"/>
        <pt x="430" y="836" on="1"/>
        <pt x="553" y="836" on="1"/>
        <pt x="455" y="759" on="0"/>
        <pt x="439" y="663" on="1"/>
        <pt x="453" y="665" on="0"/>
        <pt x="461" y="665" on="1"/>
      </contour>
      <contour>
        <pt x="127" y="741" on="0"/>
        <pt x="188" y="836" on="1"/>
        <pt x="311" y="836" on="1"/>
        <pt x="213" y="759" on="0"/>
        <pt x="197" y="663" on="1"/>
        <pt x="211" y="665" on="0"/>
        <pt x="219" y="665" on="1"/>
        <pt x="259" y="665" on="0"/>
        <pt x="301" y="617" on="0"/>
        <pt x="301" y="572" on="1"/>
        <pt x="301" y="526" on="0"/>
        <pt x="259" y="479" on="0"/>
        <pt x="219" y="479" on="1"/>
        <pt x="172" y="479" on="0"/>
        <pt x="127" y="536" on="0"/>
        <pt x="127" y="595" on="1"/>
      </contour>
    </TTGlyph>
    <TTGlyph name="quotedblright" xMin="97" yMin="542" xMax="523" yMax="899">
      <component glyphName="quotedblbase" x="0" y="721" flags="0x4"/>
    </TTGlyph>
    <TTGlyph name="quoteleft" xMin="233" yMin="479" xMax="417" yMax="836">
      <contour>
        <pt x="365" y="665" on="0"/>
        <pt x="407" y="617" on="0"/>
        <pt x="407" y="572" on="1"/>
        <pt x="407" y="526" on="0"/>
        <pt x="365" y="479" on="0"/>
        <pt x="325" y="479" on="1"/>
        <pt x="278" y="479" on="0"/>
        <pt x="233" y="536" on="0"/>
        <pt x="233" y="595" on="1"/>
        <pt x="233" y="741" on="0"/>
        <pt x="294" y="836" on="1"/>
        <pt x="417" y="836" on="1"/>
        <pt x="319" y="759" on="0"/>
        <pt x="303" y="663" on="1"/>
        <pt x="317" y="665" on="0"/>
        <pt x="325" y="665" on="1"/>
      </contour>
    </TTGlyph>
    <TTGlyph name="quoteright" xMin="233" yMin="542" xMax="417" yMax="899">
      <component glyphName="comma" x="0" y="721" flags="0x4"/>
    </TTGlyph>
    <TTGlyph name="quotesinglbase" xMin="233" yMin="-179" xMax="417" yMax="178">
      <component glyphName="comma" x="0" y="0" flags="0x0"/>
    </TTGlyph>
    <TTGlyph name="quotesingle" xMin="267" yMin="461" xMax="383" yMax="848">
      <contour>
        <pt x="383" y="848" on="1"/>
        <pt x="364" y="461" on="1"/>
        <pt x="286" y="461" on="1"/>
        <pt x="267" y="848" on="1"/>
      </contour>
    </TTGlyph>
    <TTGlyph name="r" xMin="90" yMin="0" xMax="587" yMax="615">
      <contour>
        <pt x="312" y="599" on="1"/>
        <pt x="312" y="536" on="1"/>
        <pt x="342" y="536" on="1"/>
        <pt x="363" y="615" on="0"/>
        <pt x="451" y="615" on="1"/>
        <pt x="516" y="615" on="0"/>
        <pt x="587" y="520" on="0"/>
        <pt x="587" y="434" on="1"/>
        <pt x="587" y="340" on="1"/>
        <pt x="477" y="340" on="1"/>
        <pt x="477" y="418" on="1"/>
        <pt x="477" y="516" on="0"/>
        <pt x="407" y="516" on="1"/>
        <pt x="359" y="516" on="0"/>
        <pt x="312" y="426" on="0"/>
        <pt x="312" y="335" on="1"/>
        <pt x="312" y="97" on="1"/>
        <pt x="479" y="97" on="1"/>
        <pt x="479" y="0" on="1"/>
        <pt x="108" y="0" on="1"/>
        <pt x="108" y="97" on="1"/>
        <pt x="208" y="97" on="1"/>
        <pt x="208" y="502" on="1"/>
        <pt x="90" y="502" on="1"/>
        <pt x="90" y="599" on="1"/>
      </contour>
    </TTGlyph>
    <TTGlyph name="s" xMin="105" yMin="-16" xMax="559" yMax="615">
      <contour>
        <pt x="213" y="133" on="0"/>
        <pt x="275" y="81" on="0"/>
        <pt x="330" y="81" on="1"/>
        <pt x="382" y="81" on="0"/>
        <pt x="440" y="127" on="0"/>
        <pt x="440" y="168" on="1"/>
        <pt x="440" y="200" on="0"/>
        <pt x="396" y="236" on="0"/>
        <pt x="348" y="244" on="1"/>
        <pt x="286" y="254" on="1"/>
        <pt x="109" y="283" on="0"/>
        <pt x="109" y="431" on="1"/>
        <pt x="109" y="516" on="0"/>
        <pt x="227" y="615" on="0"/>
        <pt x="327" y="615" on="1"/>
        <pt x="430" y="615" on="0"/>
        <pt x="553" y="503" on="0"/>
        <pt x="559" y="403" on="1"/>
        <pt x="458" y="403" on="1"/>
        <pt x="454" y="459" on="0"/>
        <pt x="386" y="518" on="0"/>
        <pt x="327" y="518" on="1"/>
        <pt x="272" y="518" on="0"/>
        <pt x="212" y="472" on="0"/>
        <pt x="212" y="431" on="1"/>
        <pt x="212" y="399" on="0"/>
        <pt x="257" y="362" on="0"/>
        <pt x="305" y="355" on="1"/>
        <pt x="367" y="345" on="1"/>
        <pt x="543" y="317" on="0"/>
        <pt x="543" y="168" on="1"/>
        <pt x="543" y="83" on="0"/>
        <pt x="427" y="-16" on="0"/>
        <pt x="329" y="-16" on="1"/>
        <pt x="232" y="-16" on="0"/>
        <pt x="114" y="88" on="0"/>
        <pt x="105" y="183" on="1"/>
        <pt x="207" y="183" on="1"/>
      </contour>
    </TTGlyph>
    <TTGlyph name="section" xMin="106" yMin="-216" xMax="544" yMax="816">
      <contour>
        <pt x="420" y="658" on="0"/>
        <pt x="373" y="712" on="0"/>
        <pt x="333" y="712" on="1"/>
        <pt x="298" y="712" on="0"/>
        <pt x="256" y="666" on="0"/>
        <pt x="256" y="626" on="1"/>
        <pt x="256" y="579" on="0"/>
        <pt x="310" y="520" on="0"/>
        <pt x="365" y="506" on="1"/>
        <pt x="450" y="486" on="0"/>
        <pt x="544" y="381" on="0"/>
        <pt x="544" y="308" on="1"/>
        <pt x="544" y="240" on="0"/>
        <pt x="473" y="148" on="0"/>
        <pt x="408" y="130" on="1"/>
        <pt x="408" y="100" on="1"/>
        <pt x="454" y="84" on="0"/>
        <pt x="504" y="13" on="0"/>
        <pt x="504" y="-37" on="1"/>
        <pt x="504" y="-119" on="0"/>
        <pt x="404" y="-216" on="0"/>
        <pt x="319" y="-216" on="1"/>
        <pt x="228" y="-216" on="0"/>
        <pt x="123" y="-109" on="0"/>
        <pt x="116" y="-8" on="1"/>
        <pt x="227" y="-8" on="1"/>
        <pt x="230" y="-58" on="0"/>
        <pt x="277" y="-112" on="0"/>
        <pt x="317" y="-112" on="1"/>
        <pt x="352" y="-112" on="0"/>
        <pt x="394" y="-66" on="0"/>
        <pt x="394" y="-26" on="1"/>
        <pt x="394" y="21" on="0"/>
        <pt x="340" y="80" on="0"/>
        <pt x="285" y="94" on="1"/>
        <pt x="200" y="114" on="0"/>
        <pt x="106" y="219" on="0"/>
        <pt x="106" y="292" on="1"/>
        <pt x="106" y="360" on="0"/>
        <pt x="177" y="452" on="0"/>
        <pt x="242" y="470" on="1"/>
        <pt x="242" y="500" on="1"/>
        <pt x="196" y="516" on="0"/>
        <pt x="146" y="587" on="0"/>
        <pt x="146" y="637" on="1"/>
        <pt x="146" y="719" on="0"/>
        <pt x="246" y="816" on="0"/>
        <pt x="331" y="816" on="1"/>
        <pt x="422" y="816" on="0"/>
        <pt x="527" y="709" on="0"/>
        <pt x="534" y="608" on="1"/>
        <pt x="423" y="608" on="1"/>
      </contour>
      <contour>
        <pt x="216" y="251" on="0"/>
        <pt x="274" y="195" on="0"/>
        <pt x="325" y="195" on="1"/>
        <pt x="376" y="195" on="0"/>
        <pt x="434" y="251" on="0"/>
        <pt x="434" y="300" on="1"/>
        <pt x="434" y="349" on="0"/>
        <pt x="376" y="405" on="0"/>
        <pt x="325" y="405" on="1"/>
        <pt x="274" y="405" on="0"/>
        <pt x="216" y="349" on="0"/>
        <pt x="216" y="300" on="1"/>
      </contour>
    </TTGlyph>
    <TTGlyph name="semicolon" xMin="233" yMin="-179" xMax="417" yMax="607">
      <component glyphName="period" x="0" y="429" flags="0x4"/>
      <component glyphName="comma" x="0" y="0" flags="0x0"/>
    </TTGlyph>
    <TTGlyph name="seven" xMin="80" yMin="0" xMax="552" yMax="800">
      <contour>
        <pt x="282" y="0" on="1"/>
        <pt x="167" y="0" on="1"/>
        <pt x="464" y="696" on="1"/>
        <pt x="80" y="696" on="1"/>
        <pt x="80" y="800" on="1"/>
        <pt x="552" y="800" on="1"/>
        <pt x="552" y="645" on="1"/>
      </contour>
    </TTGlyph>
    <TTGlyph name="six" xMin="68" yMin="-16" xMax="582" yMax="800">
      <contour>
        <pt x="246" y="-16" on="0"/>
        <pt x="130" y="50" on="0"/>
        <pt x="68" y="173" on="0"/>
        <pt x="68" y="255" on="1"/>
        <pt x="68" y="367" on="0"/>
        <pt x="136" y="476" on="1"/>
        <pt x="332" y="800" on="1"/>
        <pt x="458" y="800" on="1"/>
        <pt x="268" y="497" on="1"/>
        <pt x="290" y="481" on="1"/>
        <pt x="302" y="493" on="0"/>
        <pt x="346" y="507" on="0"/>
        <pt x="371" y="507" on="1"/>
        <pt x="432" y="507" on="0"/>
        <pt x="528" y="442" on="0"/>
        <pt x="582" y="327" on="0"/>
        <pt x="582" y="255" on="1"/>
        <pt x="582" y="173" on="0"/>
        <pt x="519" y="50" on="0"/>
        <pt x="402" y="-16" on="0"/>
        <pt x="324" y="-16" on="1"/>
      </contour>
      <contour>
        <pt x="178" y="179" on="0"/>
        <pt x="258" y="88" on="0"/>
        <pt x="325" y="88" on="1"/>
        <pt x="392" y="88" on="0"/>
        <pt x="472" y="179" on="0"/>
        <pt x="472" y="255" on="1"/>
        <pt x="472" y="331" on="0"/>
        <pt x="392" y="422" on="0"/>
        <pt x="325" y="422" on="1"/>
        <pt x="258" y="422" on="0"/>
        <pt x="178" y="331" on="0"/>
        <pt x="178" y="255" on="1"/>
      </contour>
    </TTGlyph>
    <TTGlyph name="slash" xMin="116" yMin="-170" xMax="534" yMax="848">
      <contour>
        <pt x="218" y="-170" on="1"/>
        <pt x="116" y="-170" on="1"/>
        <pt x="432" y="848" on="1"/>
        <pt x="534" y="848" on="1"/>
      </contour>
    </TTGlyph>
    <TTGlyph name="sterling" xMin="90" yMin="0" xMax="580" yMax="816">
      <contour>
        <pt x="203" y="215" on="0"/>
        <pt x="203" y="304" on="1"/>
        <pt x="203" y="327" on="0"/>
        <pt x="199" y="343" on="1"/>
        <pt x="90" y="343" on="1"/>
        <pt x="90" y="433" on="1"/>
        <pt x="167" y="433" on="1"/>
        <pt x="151" y="472" on="0"/>
        <pt x="133" y="540" on="0"/>
        <pt x="133" y="583" on="1"/>
        <pt x="133" y="693" on="0"/>
        <pt x="246" y="816" on="0"/>
        <pt x="349" y="816" on="1"/>
        <pt x="558" y="816" on="0"/>
        <pt x="580" y="560" on="1"/>
        <pt x="470" y="560" on="1"/>
        <pt x="455" y="712" on="0"/>
        <pt x="349" y="712" on="1"/>
        <pt x="299" y="712" on="0"/>
        <pt x="242" y="644" on="0"/>
        <pt x="242" y="583" on="1"/>
        <pt x="242" y="545" on="0"/>
        <pt x="261" y="481" on="0"/>
        <pt x="281" y="433" on="1"/>
        <pt x="462" y="433" on="1"/>
        <pt x="462" y="343" on="1"/>
        <pt x="309" y="343" on="1"/>
        <pt x="312" y="325" on="0"/>
        <pt x="312" y="304" on="1"/>
        <pt x="312" y="228" on="0"/>
        <pt x="222" y="129" on="0"/>
        <pt x="128" y="104" on="1"/>
        <pt x="560" y="104" on="1"/>
        <pt x="560" y="0" on="1"/>
        <pt x="90" y="0" on="1"/>
        <pt x="90" y="184" on="1"/>
      </contour>
    </TTGlyph>
    <TTGlyph name="t" xMin="80" yMin="-16" xMax="566" yMax="753">
      <contour>
        <pt x="302" y="599" on="1"/>
        <pt x="549" y="599" on="1"/>
        <pt x="549" y="502" on="1"/>
        <pt x="302" y="502" on="1"/>
        <pt x="302" y="192" on="1"/>
        <pt x="302" y="83" on="0"/>
        <pt x="377" y="83" on="1"/>
        <pt x="457" y="83" on="0"/>
        <pt x="467" y="208" on="1"/>
        <pt x="566" y="208" on="1"/>
        <pt x="559" y="99" on="0"/>
        <pt x="460" y="-16" on="0"/>
        <pt x="374" y="-16" on="1"/>
        <pt x="288" y="-16" on="0"/>
        <pt x="198" y="90" on="0"/>
        <pt x="198" y="192" on="1"/>
        <pt x="198" y="502" on="1"/>
        <pt x="80" y="502" on="1"/>
        <pt x="80" y="599" on="1"/>
        <pt x="198" y="599" on="1"/>
        <pt x="198" y="753" on="1"/>
        <pt x="302" y="753" on="1"/>
      </contour>
    </TTGlyph>
    <TTGlyph name="three" xMin="59" yMin="-16" xMax="580" yMax="816">
      <contour>
        <pt x="577" y="107" on="0"/>
        <pt x="443" y="-16" on="0"/>
        <pt x="327" y="-16" on="1"/>
        <pt x="209" y="-16" on="0"/>
        <pt x="73" y="114" on="0"/>
        <pt x="64" y="234" on="1"/>
        <pt x="175" y="234" on="1"/>
        <pt x="182" y="164" on="0"/>
        <pt x="261" y="88" on="0"/>
        <pt x="327" y="88" on="1"/>
        <pt x="392" y="88" on="0"/>
        <pt x="468" y="158" on="0"/>
        <pt x="468" y="219" on="1"/>
        <pt x="468" y="280" on="0"/>
        <pt x="399" y="350" on="0"/>
        <pt x="340" y="350" on="1"/>
        <pt x="252" y="350" on="1"/>
        <pt x="252" y="451" on="1"/>
        <pt x="340" y="451" on="1"/>
        <pt x="401" y="451" on="0"/>
        <pt x="470" y="521" on="0"/>
        <pt x="470" y="580" on="1"/>
        <pt x="470" y="642" on="0"/>
        <pt x="398" y="712" on="0"/>
        <pt x="335" y="712" on="1"/>
        <pt x="266" y="712" on="0"/>
        <pt x="182" y="631" on="0"/>
        <pt x="174" y="556" on="1"/>
        <pt x="59" y="556" on="1"/>
        <pt x="70" y="681" on="0"/>
        <pt x="214" y="816" on="0"/>
        <pt x="335" y="816" on="1"/>
        <pt x="449" y="816" on="0"/>
        <pt x="580" y="690" on="0"/>
        <pt x="580" y="581" on="1"/>
        <pt x="580" y="515" on="0"/>
        <pt x="512" y="426" on="0"/>
        <pt x="453" y="415" on="1"/>
        <pt x="453" y="386" on="1"/>
        <pt x="511" y="376" on="0"/>
        <pt x="577" y="283" on="0"/>
        <pt x="577" y="214" on="1"/>
      </contour>
    </TTGlyph>
    <TTGlyph name="two" xMin="74" yMin="0" xMax="584" yMax="816">
      <contour>
        <pt x="419" y="442" on="0"/>
        <pt x="474" y="527" on="0"/>
        <pt x="474" y="575" on="1"/>
        <pt x="474" y="639" on="0"/>
        <pt x="403" y="712" on="0"/>
        <pt x="341" y="712" on="1"/>
        <pt x="276" y="712" on="0"/>
        <pt x="197" y="631" on="0"/>
        <pt x="189" y="556" on="1"/>
        <pt x="74" y="556" on="1"/>
        <pt x="84" y="680" on="0"/>
        <pt x="224" y="816" on="0"/>
        <pt x="341" y="816" on="1"/>
        <pt x="454" y="816" on="0"/>
        <pt x="584" y="687" on="0"/>
        <pt x="584" y="575" on="1"/>
        <pt x="584" y="503" on="0"/>
        <pt x="509" y="380" on="0"/>
        <pt x="426" y="310" on="1"/>
        <pt x="181" y="104" on="1"/>
        <pt x="569" y="104" on="1"/>
        <pt x="569" y="0" on="1"/>
        <pt x="91" y="0" on="1"/>
        <pt x="91" y="153" on="1"/>
        <pt x="360" y="390" on="1"/>
      </contour>
    </TTGlyph>
    <TTGlyph name="u" xMin="99" yMin="-16" xMax="540" yMax="599">
      <contour>
        <pt x="436" y="0" on="1"/>
        <pt x="436" y="75" on="1"/>
        <pt x="407" y="75" on="1"/>
        <pt x="396" y="32" on="0"/>
        <pt x="324" y="-16" on="0"/>
        <pt x="271" y="-16" on="1"/>
        <pt x="192" y="-16" on="0"/>
        <pt x="99" y="100" on="0"/>
        <pt x="99" y="198" on="1"/>
        <pt x="99" y="599" on="1"/>
        <pt x="203" y="599" on="1"/>
        <pt x="203" y="225" on="1"/>
        <pt x="203" y="81" on="0"/>
        <pt x="319" y="81" on="1"/>
        <pt x="436" y="81" on="0"/>
        <pt x="436" y="225" on="1"/>
        <pt x="436" y="599" on="1"/>
        <pt x="540" y="599" on="1"/>
        <pt x="540" y="0" on="1"/>
      </contour>
    </TTGlyph>
    <TTGlyph name="underscore" xMin="77" yMin="-126" xMax="573" yMax="-50">
      <contour>
        <pt x="573" y="-50" on="1"/>
        <pt x="573" y="-126" on="1"/>
        <pt x="77" y="-126" on="1"/>
        <pt x="77" y="-50" on="1"/>
      </contour>
    </TTGlyph>
    <TTGlyph name="uni0237" xMin="88" yMin="-216" xMax="466" yMax="599">
      <contour>
        <pt x="466" y="599" on="1"/>
        <pt x="466" y="-23" on="1"/>
        <pt x="466" y="-114" on="0"/>
        <pt x="366" y="-216" on="0"/>
        <pt x="277" y="-216" on="1"/>
        <pt x="194" y="-216" on="0"/>
        <pt x="94" y="-126" on="0"/>
        <pt x="88" y="-46" on="1"/>
        <pt x="191" y="-46" on="1"/>
        <pt x="194" y="-82" on="0"/>
        <pt x="239" y="-120" on="0"/>
        <pt x="277" y="-120" on="1"/>
        <pt x="318" y="-120" on="0"/>
        <pt x="362" y="-70" on="0"/>
        <pt x="362" y="-23" on="1"/>
        <pt x="362" y="502" on="1"/>
        <pt x="121" y="502" on="1"/>
        <pt x="121" y="599" on="1"/>
      </contour>
    </TTGlyph>
    <TTGlyph name="uni0306.cy" xMin="13" yMin="880" xMax="331" yMax="1024">
      <contour>
        <pt x="109" y="952" on="0"/>
        <pt x="172" y="952" on="1"/>
        <pt x="235" y="952" on="0"/>
        <pt x="241" y="1024" on="1"/>
        <pt x="331" y="1024" on="1"/>
        <pt x="325" y="957" on="0"/>
        <pt x="240" y="880" on="0"/>
        <pt x="172" y="880" on="1"/>
        <pt x="104" y="880" on="0"/>
        <pt x="19" y="957" on="0"/>
        <pt x="13" y="1024" on="1"/>
        <pt x="103" y="1024" on="1"/>
      </contour>
    </TTGlyph>
    <TTGlyph name="uni0307" xMin="4" yMin="692" xMax="164" yMax="847">
      <contour>
        <pt x="48" y="692" on="0"/>
        <pt x="4" y="734" on="0"/>
        <pt x="4" y="769" on="1"/>
        <pt x="4" y="804" on="0"/>
        <pt x="48" y="847" on="0"/>
        <pt x="84" y="847" on="1"/>
        <pt x="120" y="847" on="0"/>
        <pt x="164" y="804" on="0"/>
        <pt x="164" y="769" on="1"/>
        <pt x="164" y="734" on="0"/>
        <pt x="120" y="692" on="0"/>
        <pt x="84" y="692" on="1"/>
      </contour>
    </TTGlyph>
    <TTGlyph name="uni0308" xMin="-131" yMin="868" xMax="231" yMax="1003">
      <contour>
        <pt x="-97" y="868" on="0"/>
        <pt x="-131" y="904" on="0"/>
        <pt x="-131" y="936" on="1"/>
        <pt x="-131" y="967" on="0"/>
        <pt x="-97" y="1003" on="0"/>
        <pt x="-67" y="1003" on="1"/>
        <pt x="-37" y="1003" on="0"/>
        <pt x="-3" y="967" on="0"/>
        <pt x="-3" y="936" on="1"/>
        <pt x="-3" y="904" on="0"/>
        <pt x="-37" y="868" on="0"/>
        <pt x="-67" y="868" on="1"/>
      </contour>
      <contour>
        <pt x="103" y="967" on="0"/>
        <pt x="137" y="1003" on="0"/>
        <pt x="167" y="1003" on="1"/>
        <pt x="197" y="1003" on="0"/>
        <pt x="231" y="967" on="0"/>
        <pt x="231" y="936" on="1"/>
        <pt x="231" y="904" on="0"/>
        <pt x="197" y="868" on="0"/>
        <pt x="167" y="868" on="1"/>
        <pt x="137" y="868" on="0"/>
        <pt x="103" y="904" on="0"/>
        <pt x="103" y="936" on="1"/>
      </contour>
    </TTGlyph>
    <TTGlyph name="uni043D" xMin="110" yMin="0" xMax="540" yMax="599">
      <contour>
        <pt x="214" y="599" on="1"/>
        <pt x="214" y="344" on="1"/>
        <pt x="436" y="344" on="1"/>
        <pt x="436" y="599" on="1"/>
        <pt x="540" y="599" on="1"/>
        <pt x="540" y="0" on="1"/>
        <pt x="436" y="0" on="1"/>
        <pt x="436" y="246" on="1"/>
        <pt x="214" y="246" on="1"/>
        <pt x="214" y="0" on="1"/>
        <pt x="110" y="0" on="1"/>
        <pt x="110" y="599" on="1"/>
      </contour>
    </TTGlyph>
    <TTGlyph name="uni043E" xMin="79" yMin="-16" xMax="571" yMax="615">
      <component glyphName="o" x="0" y="0" flags="0x0"/>
    </TTGlyph>
    <TTGlyph name="uni20BD" xMin="50" yMin="0" xMax="604" yMax="800">
      <contour>
        <pt x="472" y="800" on="0"/>
        <pt x="604" y="673" on="0"/>
        <pt x="604" y="562" on="1"/>
        <pt x="604" y="450" on="0"/>
        <pt x="472" y="323" on="0"/>
        <pt x="356" y="323" on="1"/>
        <pt x="249" y="323" on="1"/>
        <pt x="249" y="239" on="1"/>
        <pt x="409" y="239" on="1"/>
        <pt x="409" y="151" on="1"/>
        <pt x="249" y="151" on="1"/>
        <pt x="249" y="0" on="1"/>
        <pt x="144" y="0" on="1"/>
        <pt x="144" y="151" on="1"/>
        <pt x="50" y="151" on="1"/>
        <pt x="50" y="239" on="1"/>
        <pt x="144" y="239" on="1"/>
        <pt x="144" y="323" on="1"/>
        <pt x="50" y="323" on="1"/>
        <pt x="50" y="410" on="1"/>
        <pt x="144" y="410" on="1"/>
        <pt x="144" y="800" on="1"/>
        <pt x="356" y="800" on="1"/>
      </contour>
      <contour>
        <pt x="360" y="420" on="1"/>
        <pt x="422" y="420" on="0"/>
        <pt x="494" y="494" on="0"/>
        <pt x="494" y="558" on="1"/>
        <pt x="494" y="622" on="0"/>
        <pt x="422" y="696" on="0"/>
        <pt x="360" y="696" on="1"/>
        <pt x="249" y="696" on="1"/>
        <pt x="249" y="420" on="1"/>
      </contour>
    </TTGlyph>
    <TTGlyph name="v" xMin="60" yMin="0" xMax="590" yMax="599">
      <contour>
        <pt x="168" y="599" on="1"/>
        <pt x="328" y="58" on="1"/>
        <pt x="487" y="599" on="1"/>
        <pt x="590" y="599" on="1"/>
        <pt x="406" y="0" on="1"/>
        <pt x="243" y="0" on="1"/>
        <pt x="60" y="599" on="1"/>
      </contour>
    </TTGlyph>
    <TTGlyph name="w" xMin="29" yMin="0" xMax="621" yMax="599">
      <contour>
        <pt x="139" y="599" on="1"/>
        <pt x="204" y="70" on="1"/>
        <pt x="254" y="599" on="1"/>
        <pt x="404" y="599" on="1"/>
        <pt x="450" y="68" on="1"/>
        <pt x="515" y="599" on="1"/>
        <pt x="621" y="599" on="1"/>
        <pt x="522" y="0" on="1"/>
        <pt x="381" y="0" on="1"/>
        <pt x="326" y="553" on="1"/>
        <pt x="272" y="0" on="1"/>
        <pt x="128" y="0" on="1"/>
        <pt x="29" y="599" on="1"/>
      </contour>
    </TTGlyph>
    <TTGlyph name="x" xMin="69" yMin="0" xMax="581" yMax="599">
      <contour>
        <pt x="238" y="285" on="1"/>
        <pt x="69" y="599" on="1"/>
        <pt x="183" y="599" on="1"/>
        <pt x="322" y="333" on="1"/>
        <pt x="473" y="599" on="1"/>
        <pt x="581" y="599" on="1"/>
        <pt x="406" y="295" on="1"/>
        <pt x="570" y="0" on="1"/>
        <pt x="457" y="0" on="1"/>
        <pt x="322" y="247" on="1"/>
        <pt x="188" y="0" on="1"/>
        <pt x="80" y="0" on="1"/>
      </contour>
    </TTGlyph>
    <TTGlyph name="y" xMin="46" yMin="-216" xMax="602" yMax="599">
      <contour>
        <pt x="162" y="599" on="1"/>
        <pt x="343" y="82" on="1"/>
        <pt x="490" y="599" on="1"/>
        <pt x="602" y="599" on="1"/>
        <pt x="398" y="-83" on="1"/>
        <pt x="357" y="-216" on="0"/>
        <pt x="248" y="-216" on="1"/>
        <pt x="179" y="-216" on="0"/>
        <pt x="95" y="-132" on="0"/>
        <pt x="88" y="-55" on="1"/>
        <pt x="191" y="-55" on="1"/>
        <pt x="197" y="-88" on="0"/>
        <pt x="224" y="-119" on="0"/>
        <pt x="247" y="-119" on="1"/>
        <pt x="287" y="-119" on="0"/>
        <pt x="304" y="-55" on="1"/>
        <pt x="334" y="50" on="1"/>
        <pt x="250" y="50" on="1"/>
        <pt x="46" y="599" on="1"/>
      </contour>
    </TTGlyph>
    <TTGlyph name="yen" xMin="42" yMin="0" xMax="608" yMax="800">
      <contour>
        <pt x="326" y="453" on="1"/>
        <pt x="490" y="800" on="1"/>
        <pt x="608" y="800" on="1"/>
        <pt x="401" y="385" on="1"/>
        <pt x="541" y="385" on="1"/>
        <pt x="541" y="297" on="1"/>
        <pt x="379" y="297" on="1"/>
        <pt x="379" y="213" on="1"/>
        <pt x="541" y="213" on="1"/>
        <pt x="541" y="126" on="1"/>
        <pt x="379" y="126" on="1"/>
        <pt x="379" y="0" on="1"/>
        <pt x="271" y="0" on="1"/>
        <pt x="271" y="126" on="1"/>
        <pt x="109" y="126" on="1"/>
        <pt x="109" y="213" on="1"/>
        <pt x="271" y="213" on="1"/>
        <pt x="271" y="297" on="1"/>
        <pt x="109" y="297" on="1"/>
        <pt x="109" y="385" on="1"/>
        <pt x="249" y="385" on="1"/>
        <pt x="42" y="800" on="1"/>
        <pt x="162" y="800" on="1"/>
      </contour>
    </TTGlyph>
    <TTGlyph name="z" xMin="119" yMin="0" xMax="531" yMax="599">
      <contour>
        <pt x="531" y="599" on="1"/>
        <pt x="531" y="423" on="1"/>
        <pt x="176" y="97" on="1"/>
        <pt x="531" y="97" on="1"/>
        <pt x="531" y="0" on="1"/>
        <pt x="119" y="0" on="1"/>
        <pt x="119" y="176" on="1"/>
        <pt x="474" y="502" on="1"/>
        <pt x="119" y="502" on="1"/>
        <pt x="119" y="599" on="1"/>
      </contour>
    </TTGlyph>
    <TTGlyph name="zero" xMin="60" yMin="-16" xMax="590" yMax="816">
      <contour>
        <pt x="191" y="-16" on="0"/>
        <pt x="60" y="190" on="0"/>
        <pt x="60" y="400" on="1"/>
        <pt x="60" y="610" on="0"/>
        <pt x="191" y="816" on="0"/>
        <pt x="325" y="816" on="1"/>
        <pt x="459" y="816" on="0"/>
        <pt x="590" y="610" on="0"/>
        <pt x="590" y="400" on="1"/>
        <pt x="590" y="190" on="0"/>
        <pt x="459" y="-16" on="0"/>
        <pt x="325" y="-16" on="1"/>
      </contour>
      <contour>
        <pt x="167" y="373" on="0"/>
        <pt x="169" y="331" on="1"/>
        <pt x="465" y="584" on="1"/>
        <pt x="448" y="651" on="0"/>
        <pt x="379" y="715" on="0"/>
        <pt x="325" y="715" on="1"/>
        <pt x="243" y="715" on="0"/>
        <pt x="167" y="563" on="0"/>
        <pt x="167" y="400" on="1"/>
      </contour>
      <contour>
        <pt x="203" y="149" on="0"/>
        <pt x="272" y="85" on="0"/>
        <pt x="325" y="85" on="1"/>
        <pt x="407" y="85" on="0"/>
        <pt x="483" y="237" on="0"/>
        <pt x="483" y="400" on="1"/>
        <pt x="483" y="425" on="0"/>
        <pt x="481" y="469" on="1"/>
        <pt x="186" y="215" on="1"/>
      </contour>
    </TTGlyph>
</ttFont>
